<svg width="19" height="18" viewBox="0 0 19 18" fill="none" xmlns="http://www.w3.org/2000/svg">
<path d="M4.35355 0.646446C4.15829 0.451185 3.84171 0.451185 3.64645 0.646446L0.464466 3.82843C0.269204 4.02369 0.269204 4.34027 0.464466 4.53553C0.659728 4.7308 0.976311 4.7308 1.17157 4.53553L4 1.70711L6.82843 4.53553C7.02369 4.7308 7.34027 4.7308 7.53553 4.53553C7.7308 4.34027 7.7308 4.02369 7.53553 3.82843L4.35355 0.646446ZM4.5 17L4.5 1H3.5L3.5 17H4.5Z" fill="#2081D3"/>
<path d="M14.6464 17.3536C14.8417 17.5488 15.1583 17.5488 15.3536 17.3536L18.5355 14.1716C18.7308 13.9763 18.7308 13.6597 18.5355 13.4645C18.3403 13.2692 18.0237 13.2692 17.8284 13.4645L15 16.2929L12.1716 13.4645C11.9763 13.2692 11.6597 13.2692 11.4645 13.4645C11.2692 13.6597 11.2692 13.9763 11.4645 14.1716L14.6464 17.3536ZM15.5 17L15.5 1H14.5L14.5 17H15.5Z" fill="#2081D3"/>
</svg>
