<svg width="64" height="62" viewBox="0 0 64 62" fill="none" xmlns="http://www.w3.org/2000/svg">
<ellipse cx="31.8493" cy="31" rx="31.8493" ry="31" fill="white"/>
<mask id="path-2-inside-1_1_17" fill="white">
<path d="M31.2887 28.4531L32.7681 27.6045L34.2705 28.4531L32.8255 29.3362L31.2887 28.4531Z"/>
</mask>
<path d="M31.2887 28.4531L13.3756 -2.77378L-41.0139 28.4264L13.3525 59.6668L31.2887 28.4531ZM32.7681 27.6045L50.4743 -3.74023L32.6311 -13.8196L14.855 -3.62243L32.7681 27.6045ZM34.2705 28.4531L53.0427 59.1713L105.305 27.233L51.9766 -2.89158L34.2705 28.4531ZM32.8255 29.3362L14.8893 60.5499L33.3903 71.1811L51.5977 60.0543L32.8255 29.3362ZM49.2018 59.6801L50.6812 58.8314L14.855 -3.62243L13.3756 -2.77378L49.2018 59.6801ZM15.0619 58.9492L16.5643 59.7979L51.9766 -2.89158L50.4743 -3.74023L15.0619 58.9492ZM15.4983 -2.265L14.0533 -1.38194L51.5977 60.0543L53.0427 59.1713L15.4983 -2.265ZM50.7617 -1.87746L49.2249 -2.76052L13.3525 59.6668L14.8893 60.5499L50.7617 -1.87746Z" fill="#0D87EF" mask="url(#path-2-inside-1_1_17)"/>
<path d="M32.9378 30.7622L29.0918 28.4931L32.8231 26.3481L36.6469 28.5725L32.9378 30.7622Z" stroke="#0D87EF"/>
<mask id="path-5-inside-2_1_17" fill="white">
<path d="M16.4151 19.7663L17.7931 18.9758L19.1924 19.7663L17.8465 20.5888L16.4151 19.7663Z"/>
</mask>
<path d="M16.4151 19.7663L-1.49798 -11.4606L-55.8875 19.7396L-1.52107 50.98L16.4151 19.7663ZM17.7931 18.9758L35.4993 -12.3689L17.6561 -22.4482L-0.120026 -12.2511L17.7931 18.9758ZM19.1924 19.7663L37.9646 50.4844L90.2272 18.5462L36.8986 -11.5784L19.1924 19.7663ZM17.8465 20.5888L-0.0897037 51.8025L18.4114 62.4337L36.6187 51.3069L17.8465 20.5888ZM34.3283 50.9932L35.7062 50.2028L-0.120026 -12.2511L-1.49798 -11.4606L34.3283 50.9932ZM0.086921 50.3206L1.48624 51.111L36.8986 -11.5784L35.4993 -12.3689L0.086921 50.3206ZM0.420208 -10.9518L-0.925704 -10.1293L36.6187 51.3069L37.9646 50.4844L0.420208 -10.9518ZM35.7827 -10.6249L34.3513 -11.4474L-1.52107 50.98L-0.0897037 51.8025L35.7827 -10.6249Z" fill="#0D87EF" mask="url(#path-5-inside-2_1_17)"/>
<rect width="0.315429" height="0.336765" transform="matrix(0.88559 0.464469 -0.858598 0.512649 23.6896 20.6775)" fill="#0D87EF"/>
<rect width="0.315429" height="1.04397" transform="matrix(0.88559 0.464469 -0.858598 0.512649 21.3399 20.4669)" fill="#0D87EF"/>
<rect width="0.315429" height="0.690368" transform="matrix(0.88559 0.464469 -0.858598 0.512649 20.1546 21.1748)" fill="#0D87EF"/>
<rect width="0.315429" height="0.336765" transform="matrix(0.88559 0.464469 -0.858598 0.512649 22.5316 20.0694)" fill="#0D87EF"/>
<rect width="0.315429" height="1.04397" transform="matrix(0.88559 0.464469 -0.858598 0.512649 18.9559 21.8912)" fill="#0D87EF"/>
<rect width="0.315429" height="1.04397" transform="matrix(0.88559 0.464469 -0.858598 0.512649 19.8414 21.675)" fill="#0D87EF"/>
<rect width="0.315429" height="3.13192" transform="matrix(0.88559 0.464469 -0.858598 0.512649 22.5206 20.3889)" fill="#0D87EF"/>
<rect width="0.315429" height="1.76802" transform="matrix(0.88559 0.464469 -0.858598 0.512649 23.1214 20.7038)" fill="#0D87EF"/>
<rect width="0.362744" height="0.690368" transform="matrix(0.88559 0.464469 -0.858598 0.512649 23.0899 20.3626)" fill="#0D87EF"/>
<rect width="0.362744" height="0.319927" transform="matrix(0.88559 0.464469 -0.858598 0.512649 22.1782 20.9063)" fill="#0D87EF"/>
<rect width="0.315429" height="1.3639" transform="matrix(0.88559 0.464469 -0.858598 0.512649 21.2823 21.4417)" fill="#0D87EF"/>
<rect width="0.315429" height="0.336765" transform="matrix(0.88559 0.464469 -0.858598 0.512649 21.0098 21.9642)" fill="#0D87EF"/>
<rect width="0.315429" height="1.06081" transform="matrix(0.88559 0.464469 -0.858598 0.512649 20.4317 22.2931)" fill="#0D87EF"/>
<rect width="0.678172" height="0.336765" transform="matrix(0.88559 0.464469 -0.858598 0.512649 19.2237 22.3571)" fill="#0D87EF"/>
<rect width="0.315429" height="0.336765" transform="matrix(0.88559 0.464469 -0.858598 0.512649 18.6182 22.7196)" fill="#0D87EF"/>
<rect width="0.315429" height="0.336765" transform="matrix(0.88559 0.464469 -0.858598 0.512649 19.2289 22.6831)" fill="#0D87EF"/>
<rect width="0.315429" height="0.336765" transform="matrix(0.88559 0.464469 -0.858598 0.512649 19.205 23.0431)" fill="#0D87EF"/>
<rect width="0.315429" height="0.336765" transform="matrix(0.88559 0.464469 -0.858598 0.512649 23.7082 21.0272)" fill="#0D87EF"/>
<rect width="0.315429" height="0.336765" transform="matrix(0.88559 0.464469 -0.858598 0.512649 24.2758 21.0008)" fill="#0D87EF"/>
<rect width="0.315429" height="0.336765" transform="matrix(0.88559 0.464469 -0.858598 0.512649 24.8359 21.294)" fill="#0D87EF"/>
<rect width="0.315429" height="0.336765" transform="matrix(0.88559 0.464469 -0.858598 0.512649 25.435 21.6089)" fill="#0D87EF"/>
<rect width="0.315429" height="0.336765" transform="matrix(0.88559 0.464469 -0.858598 0.512649 26.0352 21.9238)" fill="#0D87EF"/>
<rect width="0.315429" height="0.336765" transform="matrix(0.88559 0.464469 -0.858598 0.512649 26.1866 22.4542)" fill="#0D87EF"/>
<rect width="0.315429" height="0.336765" transform="matrix(0.88559 0.464469 -0.858598 0.512649 25.4396 21.9354)" fill="#0D87EF"/>
<rect width="0.315429" height="0.336765" transform="matrix(0.88559 0.464469 -0.858598 0.512649 23.1144 21.3811)" fill="#0D87EF"/>
<rect width="0.315429" height="0.336765" transform="matrix(0.88559 0.464469 -0.858598 0.512649 22.5048 21.3855)" fill="#0D87EF"/>
<rect width="0.315429" height="0.336765" transform="matrix(0.88559 0.464469 -0.858598 0.512649 24.5483 21.8252)" fill="#0D87EF"/>
<rect width="0.315429" height="0.336765" transform="matrix(0.88559 0.464469 -0.858598 0.512649 22.7622 22.2182)" fill="#0D87EF"/>
<rect width="0.315429" height="0.336765" transform="matrix(0.88559 0.464469 -0.858598 0.512649 23.0608 21.71)" fill="#0D87EF"/>
<rect width="0.315429" height="0.336765" transform="matrix(0.88559 0.464469 -0.858598 0.512649 23.6576 22.6869)" fill="#0D87EF"/>
<rect width="0.315429" height="0.336765" transform="matrix(0.88559 0.464469 -0.858598 0.512649 23.6366 23.3252)" fill="#0D87EF"/>
<rect width="0.315429" height="0.336765" transform="matrix(0.88559 0.464469 -0.858598 0.512649 23.6401 23.6677)" fill="#0D87EF"/>
<rect width="0.315429" height="0.336765" transform="matrix(0.88559 0.464469 -0.858598 0.512649 23.0311 24.0301)" fill="#0D87EF"/>
<rect width="0.315429" height="0.336765" transform="matrix(0.88559 0.464469 -0.858598 0.512649 22.4257 24.3928)" fill="#0D87EF"/>
<rect width="1.05109" height="0.336765" transform="matrix(0.88559 0.464469 -0.858598 0.512649 21.4226 24.2075)" fill="#0D87EF"/>
<rect width="0.315429" height="0.336765" transform="matrix(0.88559 0.464469 -0.858598 0.512649 22.4024 23.7162)" fill="#0D87EF"/>
<rect width="0.315429" height="0.336765" transform="matrix(0.88559 0.464469 -0.858598 0.512649 21.8604 23.4145)" fill="#0D87EF"/>
<rect width="0.315429" height="0.336765" transform="matrix(0.88559 0.464469 -0.858598 0.512649 20.1092 23.1767)" fill="#0D87EF"/>
<rect width="0.315429" height="0.336765" transform="matrix(0.88559 0.464469 -0.858598 0.512649 20.3968 23.004)" fill="#0D87EF"/>
<rect width="0.315429" height="0.336765" transform="matrix(0.88559 0.464469 -0.858598 0.512649 21.8883 22.4091)" fill="#0D87EF"/>
<rect width="0.315429" height="0.336765" transform="matrix(0.88559 0.464469 -0.858598 0.512649 20.9789 22.9527)" fill="#0D87EF"/>
<rect width="0.630859" height="0.336765" transform="matrix(0.88559 0.464469 -0.858598 0.512649 24.2654 21.3203)" fill="#0D87EF"/>
<rect width="0.630859" height="0.336765" transform="matrix(0.88559 0.464469 -0.858598 0.512649 25.1497 22.1082)" fill="#0D87EF"/>
<rect width="1.27749" height="0.336765" transform="matrix(0.88559 0.464469 -0.858598 0.512649 24.5675 22.1272)" fill="#0D87EF"/>
<rect width="0.946287" height="0.336765" transform="matrix(0.88559 0.464469 -0.858598 0.512649 24.2403 22.6519)" fill="#0D87EF"/>
<rect width="0.315429" height="0.336765" transform="matrix(0.88559 0.464469 -0.858598 0.512649 23.9504 22.8247)" fill="#0D87EF"/>
<rect width="0.678172" height="0.336765" transform="matrix(0.88559 0.464469 -0.858598 0.512649 23.6739 21.6742)" fill="#0D87EF"/>
<rect width="0.662401" height="0.336765" transform="matrix(0.88559 0.464469 -0.858598 0.512649 23.6349 22.0106)" fill="#0D87EF"/>
<rect width="1.30903" height="0.336765" transform="matrix(0.88559 0.464469 -0.858598 0.512649 22.7732 21.8825)" fill="#0D87EF"/>
<rect width="0.96206" height="0.336765" transform="matrix(0.88559 0.464469 -0.858598 0.512649 23.6477 22.99)" fill="#0D87EF"/>
<rect width="0.315429" height="0.656693" transform="matrix(0.88559 0.464469 -0.858598 0.512649 22.7511 22.5528)" fill="#0D87EF"/>
<rect width="0.315429" height="1.01029" transform="matrix(0.88559 0.464469 -0.858598 0.512649 21.8848 22.0985)" fill="#0D87EF"/>
<rect width="0.315429" height="1.07765" transform="matrix(0.88559 0.464469 -0.858598 0.512649 21.8953 22.7518)" fill="#0D87EF"/>
<rect width="0.315429" height="1.04397" transform="matrix(0.88559 0.464469 -0.858598 0.512649 23.0637 23.0407)" fill="#0D87EF"/>
<rect width="0.662401" height="0.336765" transform="matrix(0.88559 0.464469 -0.858598 0.512649 21.8417 23.0808)" fill="#0D87EF"/>
<rect width="0.630859" height="0.67353" transform="matrix(0.88559 0.464469 -0.858598 0.512649 21.8499 23.7339)" fill="#0D87EF"/>
<rect width="0.315429" height="0.336765" transform="matrix(0.88559 0.464469 -0.858598 0.512649 22.3803 24.0439)" fill="#0D87EF"/>
<rect width="0.630859" height="1.01029" transform="matrix(0.88559 0.464469 -0.858598 0.512649 20.9976 23.287)" fill="#0D87EF"/>
<rect width="0.630859" height="0.336765" transform="matrix(0.88559 0.464469 -0.858598 0.512649 19.8181 23.3493)" fill="#0D87EF"/>
<rect width="0.220492" height="0.342701" transform="matrix(0.88559 0.464469 -0.858598 0.512649 32.1372 25.5126)" fill="#0D87EF"/>
<rect width="0.220492" height="1.06237" transform="matrix(0.88559 0.464469 -0.858598 0.512649 30.2049 25.5386)" fill="#0D87EF"/>
<rect width="0.220492" height="0.702538" transform="matrix(0.88559 0.464469 -0.858598 0.512649 28.9969 26.2589)" fill="#0D87EF"/>
<rect width="0.220492" height="0.342701" transform="matrix(0.88559 0.464469 -0.858598 0.512649 31.3268 25.0874)" fill="#0D87EF"/>
<rect width="0.220492" height="1.06237" transform="matrix(0.88559 0.464469 -0.858598 0.512649 27.7772 26.988)" fill="#0D87EF"/>
<rect width="0.220492" height="1.06237" transform="matrix(0.88559 0.464469 -0.858598 0.512649 28.5894 26.7213)" fill="#0D87EF"/>
<rect width="0.220492" height="3.18712" transform="matrix(0.88559 0.464469 -0.858598 0.512649 31.2284 25.3658)" fill="#0D87EF"/>
<rect width="0.220492" height="1.79918" transform="matrix(0.88559 0.464469 -0.858598 0.512649 31.647 25.586)" fill="#0D87EF"/>
<rect width="0.253566" height="0.702538" transform="matrix(0.88559 0.464469 -0.858598 0.512649 31.7174 25.2923)" fill="#0D87EF"/>
<rect width="0.253566" height="0.325566" transform="matrix(0.88559 0.464469 -0.858598 0.512649 30.79 25.8457)" fill="#0D87EF"/>
<rect width="0.220492" height="1.38794" transform="matrix(0.88559 0.464469 -0.858598 0.512649 29.8777 26.3905)" fill="#0D87EF"/>
<rect width="0.220492" height="0.342701" transform="matrix(0.88559 0.464469 -0.858598 0.512649 29.4982 26.8685)" fill="#0D87EF"/>
<rect width="0.220492" height="1.07951" transform="matrix(0.88559 0.464469 -0.858598 0.512649 28.9154 27.2056)" fill="#0D87EF"/>
<rect width="0.474058" height="0.342701" transform="matrix(0.88559 0.464469 -0.858598 0.512649 27.8739 27.3686)" fill="#0D87EF"/>
<rect width="0.220492" height="0.342701" transform="matrix(0.88559 0.464469 -0.858598 0.512649 27.255 27.7376)" fill="#0D87EF"/>
<rect width="0.220492" height="0.342701" transform="matrix(0.88559 0.464469 -0.858598 0.512649 27.783 27.6515)" fill="#0D87EF"/>
<rect width="0.220492" height="0.342701" transform="matrix(0.88559 0.464469 -0.858598 0.512649 27.6608 27.9665)" fill="#0D87EF"/>
<rect width="0.220492" height="0.342701" transform="matrix(0.88559 0.464469 -0.858598 0.512649 32.0516 25.8148)" fill="#0D87EF"/>
<rect width="0.220492" height="0.342701" transform="matrix(0.88559 0.464469 -0.858598 0.512649 32.5418 25.7412)" fill="#0D87EF"/>
<rect width="0.220492" height="0.342701" transform="matrix(0.88559 0.464469 -0.858598 0.512649 32.9319 25.9461)" fill="#0D87EF"/>
<rect width="0.220492" height="0.342701" transform="matrix(0.88559 0.464469 -0.858598 0.512649 33.3522 26.1663)" fill="#0D87EF"/>
<rect width="0.220492" height="0.342701" transform="matrix(0.88559 0.464469 -0.858598 0.512649 33.7725 26.3863)" fill="#0D87EF"/>
<rect width="0.220492" height="0.342701" transform="matrix(0.88559 0.464469 -0.858598 0.512649 33.7498 26.8336)" fill="#0D87EF"/>
<rect width="0.220492" height="0.342701" transform="matrix(0.88559 0.464469 -0.858598 0.512649 33.2625 26.4496)" fill="#0D87EF"/>
<rect width="0.220492" height="0.342701" transform="matrix(0.88559 0.464469 -0.858598 0.512649 31.449 26.1749)" fill="#0D87EF"/>
<rect width="0.220492" height="0.342701" transform="matrix(0.88559 0.464469 -0.858598 0.512649 30.9303 26.2329)" fill="#0D87EF"/>
<rect width="0.220492" height="0.342701" transform="matrix(0.88559 0.464469 -0.858598 0.512649 32.5389 26.433)" fill="#0D87EF"/>
<rect width="0.220492" height="0.342701" transform="matrix(0.88559 0.464469 -0.858598 0.512649 30.9134 26.9333)" fill="#0D87EF"/>
<rect width="0.220492" height="0.342701" transform="matrix(0.88559 0.464469 -0.858598 0.512649 31.3093 26.4652)" fill="#0D87EF"/>
<rect width="0.220492" height="0.342701" transform="matrix(0.88559 0.464469 -0.858598 0.512649 30.0087 28.8521)" fill="#0D87EF"/>
<rect width="0.734737" height="0.342701" transform="matrix(0.88559 0.464469 -0.858598 0.512649 29.2123 28.7803)" fill="#0D87EF"/>
<rect width="0.220492" height="0.342701" transform="matrix(0.88559 0.464469 -0.858598 0.512649 29.8067 28.0527)" fill="#0D87EF"/>
<rect width="0.220492" height="0.342701" transform="matrix(0.88559 0.464469 -0.858598 0.512649 28.3885 28.0021)" fill="#0D87EF"/>
<rect width="0.220492" height="0.342701" transform="matrix(0.88559 0.464469 -0.858598 0.512649 28.6825 27.8263)" fill="#0D87EF"/>
<rect width="0.220492" height="0.342701" transform="matrix(0.88559 0.464469 -0.858598 0.512649 30.1182 27.1766)" fill="#0D87EF"/>
<rect width="0.220492" height="0.342701" transform="matrix(0.88559 0.464469 -0.858598 0.512649 29.1913 27.73)" fill="#0D87EF"/>
<rect width="0.440985" height="0.342701" transform="matrix(0.88559 0.464469 -0.858598 0.512649 32.4434 26.0196)" fill="#0D87EF"/>
<rect width="0.474058" height="0.342701" transform="matrix(0.88559 0.464469 -0.858598 0.512649 31.8397 26.3797)" fill="#0D87EF"/>
<rect width="0.463034" height="0.342701" transform="matrix(0.88559 0.464469 -0.858598 0.512649 31.7099 26.6754)" fill="#0D87EF"/>
<rect width="0.915043" height="0.342701" transform="matrix(0.88559 0.464469 -0.858598 0.512649 31.0165 26.6409)" fill="#0D87EF"/>
<rect width="0.220492" height="0.668268" transform="matrix(0.88559 0.464469 -0.858598 0.512649 30.8092 27.2249)" fill="#0D87EF"/>
<rect width="0.220492" height="1.0281" transform="matrix(0.88559 0.464469 -0.858598 0.512649 30.2038 26.9075)" fill="#0D87EF"/>
<rect width="0.220492" height="1.09664" transform="matrix(0.88559 0.464469 -0.858598 0.512649 30.025 27.4741)" fill="#0D87EF"/>
<rect width="0.463034" height="0.342701" transform="matrix(0.88559 0.464469 -0.858598 0.512649 29.8876 27.7643)" fill="#0D87EF"/>
<rect width="0.440985" height="1.0281" transform="matrix(0.88559 0.464469 -0.858598 0.512649 29.1133 28.0186)" fill="#0D87EF"/>
<rect width="0.440985" height="0.342701" transform="matrix(0.88559 0.464469 -0.858598 0.512649 28.0957 28.1777)" fill="#0D87EF"/>
<rect width="0.336743" height="0.336766" transform="matrix(0.877764 0.479094 -0.866984 0.498337 29.7813 11.78)" fill="#0D87EF"/>
<rect width="0.336743" height="1.04398" transform="matrix(0.877764 0.479094 -0.866984 0.498337 27.3437 11.4777)" fill="#0D87EF"/>
<rect width="0.336743" height="0.690371" transform="matrix(0.877764 0.479094 -0.866984 0.498337 26.1467 12.1659)" fill="#0D87EF"/>
<rect width="0.336743" height="0.336766" transform="matrix(0.877764 0.479094 -0.866984 0.498337 28.557 11.1102)" fill="#0D87EF"/>
<rect width="0.336743" height="1.04398" transform="matrix(0.877764 0.479094 -0.866984 0.498337 24.9329 12.8624)" fill="#0D87EF"/>
<rect width="0.336743" height="1.04398" transform="matrix(0.877764 0.479094 -0.866984 0.498337 25.8422 12.6711)" fill="#0D87EF"/>
<rect width="0.336743" height="3.13192" transform="matrix(0.877764 0.479094 -0.866984 0.498337 28.5616 11.4399)" fill="#0D87EF"/>
<rect width="0.336743" height="1.76802" transform="matrix(0.877764 0.479094 -0.866984 0.498337 29.1974 11.7866)" fill="#0D87EF"/>
<rect width="0.387255" height="0.690371" transform="matrix(0.877764 0.479094 -0.866984 0.498337 29.1479 11.4332)" fill="#0D87EF"/>
<rect width="0.387255" height="0.319928" transform="matrix(0.877764 0.479094 -0.866984 0.498337 28.2286 11.9618)" fill="#0D87EF"/>
<rect width="0.336743" height="1.3639" transform="matrix(0.877764 0.479094 -0.866984 0.498337 27.3239 12.4821)" fill="#0D87EF"/>
<rect width="0.336743" height="0.336766" transform="matrix(0.877764 0.479094 -0.866984 0.498337 27.0666 13.0119)" fill="#0D87EF"/>
<rect width="0.336743" height="1.06081" transform="matrix(0.877764 0.479094 -0.866984 0.498337 26.4803 13.3305)" fill="#0D87EF"/>
<rect width="0.723998" height="0.336766" transform="matrix(0.877764 0.479094 -0.866984 0.498337 25.2315 13.353)" fill="#0D87EF"/>
<rect width="0.336743" height="0.336766" transform="matrix(0.877764 0.479094 -0.866984 0.498337 24.6197 13.7054)" fill="#0D87EF"/>
<rect width="0.336743" height="0.336766" transform="matrix(0.877764 0.479094 -0.866984 0.498337 25.2519 13.6897)" fill="#0D87EF"/>
<rect width="0.336743" height="0.336766" transform="matrix(0.877764 0.479094 -0.866984 0.498337 25.2403 14.0607)" fill="#0D87EF"/>
<rect width="0.336743" height="0.336766" transform="matrix(0.877764 0.479094 -0.866984 0.498337 29.8168 12.1418)" fill="#0D87EF"/>
<rect width="0.336743" height="0.336766" transform="matrix(0.877764 0.479094 -0.866984 0.498337 30.4042 12.1347)" fill="#0D87EF"/>
<rect width="0.336743" height="0.336766" transform="matrix(0.877764 0.479094 -0.866984 0.498337 30.9963 12.4576)" fill="#0D87EF"/>
<rect width="0.336743" height="0.336766" transform="matrix(0.877764 0.479094 -0.866984 0.498337 31.6309 12.8045)" fill="#0D87EF"/>
<rect width="0.336743" height="0.336766" transform="matrix(0.877764 0.479094 -0.866984 0.498337 32.2666 13.1511)" fill="#0D87EF"/>
<rect width="0.336743" height="0.336766" transform="matrix(0.877764 0.479094 -0.866984 0.498337 32.241 13.4645)" fill="#0D87EF"/>
<rect width="0.336743" height="0.336766" transform="matrix(0.877764 0.479094 -0.866984 0.498337 31.6501 13.1417)" fill="#0D87EF"/>
<rect width="0.336743" height="0.336766" transform="matrix(0.877764 0.479094 -0.866984 0.498337 29.2195 12.4857)" fill="#0D87EF"/>
<rect width="0.336743" height="0.336766" transform="matrix(0.877764 0.479094 -0.866984 0.498337 28.5872 12.4681)" fill="#0D87EF"/>
<rect width="0.336743" height="0.336766" transform="matrix(0.877764 0.479094 -0.866984 0.498337 30.7227 12.9958)" fill="#0D87EF"/>
<rect width="0.336743" height="0.336766" transform="matrix(0.877764 0.479094 -0.866984 0.498337 28.89 13.3372)" fill="#0D87EF"/>
<rect width="0.336743" height="0.336766" transform="matrix(0.877764 0.479094 -0.866984 0.498337 29.1758 12.8231)" fill="#0D87EF"/>
<rect width="0.336743" height="0.336766" transform="matrix(0.877764 0.479094 -0.866984 0.498337 29.8366 13.8533)" fill="#0D87EF"/>
<rect width="0.336743" height="0.336766" transform="matrix(0.877764 0.479094 -0.866984 0.498337 29.8418 14.5117)" fill="#0D87EF"/>
<rect width="0.336743" height="0.336766" transform="matrix(0.877764 0.479094 -0.866984 0.498337 29.8628 14.8655)" fill="#0D87EF"/>
<rect width="0.336743" height="0.336766" transform="matrix(0.877764 0.479094 -0.866984 0.498337 29.2498 15.2178)" fill="#0D87EF"/>
<rect width="0.336743" height="0.336766" transform="matrix(0.877764 0.479094 -0.866984 0.498337 28.6361 15.5702)" fill="#0D87EF"/>
<rect width="1.12211" height="0.336766" transform="matrix(0.877764 0.479094 -0.866984 0.498337 27.5888 15.3427)" fill="#0D87EF"/>
<rect width="0.336743" height="0.336766" transform="matrix(0.877764 0.479094 -0.866984 0.498337 28.5837 14.8709)" fill="#0D87EF"/>
<rect width="0.336743" height="0.336766" transform="matrix(0.877764 0.479094 -0.866984 0.498337 28.0074 14.5398)" fill="#0D87EF"/>
<rect width="0.336743" height="0.336766" transform="matrix(0.877764 0.479094 -0.866984 0.498337 26.1817 14.2309)" fill="#0D87EF"/>
<rect width="0.336743" height="0.336766" transform="matrix(0.877764 0.479094 -0.866984 0.498337 26.4728 14.0632)" fill="#0D87EF"/>
<rect width="0.336743" height="0.336766" transform="matrix(0.877764 0.479094 -0.866984 0.498337 27.9946 13.5028)" fill="#0D87EF"/>
<rect width="0.336743" height="0.336766" transform="matrix(0.877764 0.479094 -0.866984 0.498337 27.0759 14.0312)" fill="#0D87EF"/>
<rect width="0.673486" height="0.336766" transform="matrix(0.877764 0.479094 -0.866984 0.498337 30.4089 12.4643)" fill="#0D87EF"/>
<rect width="0.673486" height="0.336766" transform="matrix(0.877764 0.479094 -0.866984 0.498337 31.3555 13.3095)" fill="#0D87EF"/>
<rect width="1.36381" height="0.336766" transform="matrix(0.877764 0.479094 -0.866984 0.498337 30.7553 13.3082)" fill="#0D87EF"/>
<rect width="1.01023" height="0.336766" transform="matrix(0.877764 0.479094 -0.866984 0.498337 30.4386 13.8382)" fill="#0D87EF"/>
<rect width="0.336743" height="0.336766" transform="matrix(0.877764 0.479094 -0.866984 0.498337 30.1446 14.0061)" fill="#0D87EF"/>
<rect width="0.723998" height="0.336766" transform="matrix(0.877764 0.479094 -0.866984 0.498337 29.8098 12.8083)" fill="#0D87EF"/>
<rect width="0.707162" height="0.336766" transform="matrix(0.877764 0.479094 -0.866984 0.498337 29.7842 13.1542)" fill="#0D87EF"/>
<rect width="1.39748" height="0.336766" transform="matrix(0.877764 0.479094 -0.866984 0.498337 28.8865 12.991)" fill="#0D87EF"/>
<rect width="1.02707" height="0.336766" transform="matrix(0.877764 0.479094 -0.866984 0.498337 29.8401 14.166)" fill="#0D87EF"/>
<rect width="0.336743" height="0.656694" transform="matrix(0.877764 0.479094 -0.866984 0.498337 28.894 13.6822)" fill="#0D87EF"/>
<rect width="0.336743" height="1.0103" transform="matrix(0.877764 0.479094 -0.866984 0.498337 27.9783 13.1821)" fill="#0D87EF"/>
<rect width="0.336743" height="1.07765" transform="matrix(0.877764 0.479094 -0.866984 0.498337 28.0144 13.8569)" fill="#0D87EF"/>
<rect width="0.336743" height="1.04398" transform="matrix(0.877764 0.479094 -0.866984 0.498337 29.2364 14.1973)" fill="#0D87EF"/>
<rect width="0.707162" height="0.336766" transform="matrix(0.877764 0.479094 -0.866984 0.498337 27.9754 14.1946)" fill="#0D87EF"/>
<rect width="0.673486" height="0.673531" transform="matrix(0.877764 0.479094 -0.866984 0.498337 28.012 14.8693)" fill="#0D87EF"/>
<rect width="0.336743" height="0.336766" transform="matrix(0.877764 0.479094 -0.866984 0.498337 28.5704 15.2083)" fill="#0D87EF"/>
<rect width="0.673486" height="1.0103" transform="matrix(0.877764 0.479094 -0.866984 0.498337 27.1091 14.377)" fill="#0D87EF"/>
<rect width="0.673486" height="0.336766" transform="matrix(0.877764 0.479094 -0.866984 0.498337 25.8906 14.399)" fill="#0D87EF"/>
<rect width="0.305124" height="0.396076" transform="matrix(0.866218 0.499666 -0.878498 0.477746 25.6991 14.5651)" fill="#0D87EF"/>
<rect width="0.305124" height="1.22783" transform="matrix(0.866218 0.499666 -0.878498 0.477746 23.2714 13.9117)" fill="#0D87EF"/>
<rect width="0.305124" height="0.396076" transform="matrix(0.866218 0.499666 -0.878498 0.477746 23.9149 13.5271)" fill="#0D87EF"/>
<rect width="0.305124" height="1.86124" transform="matrix(0.866218 0.499666 -0.878498 0.477746 24.0899 14.0289)" fill="#0D87EF"/>
<rect width="0.305124" height="2.0794" transform="matrix(0.866218 0.499666 -0.878498 0.477746 25.0866 14.6021)" fill="#0D87EF"/>
<rect width="0.827118" height="0.811955" transform="matrix(0.866218 0.499666 -0.878498 0.477746 24.7169 13.9994)" fill="#0D87EF"/>
<rect width="0.830124" height="0.376272" transform="matrix(0.866218 0.499666 -0.878498 0.477746 23.6201 14.594)" fill="#0D87EF"/>
<rect width="0.305124" height="0.396076" transform="matrix(0.866218 0.499666 -0.878498 0.477746 25.6362 14.9391)" fill="#0D87EF"/>
<rect width="0.305124" height="0.396076" transform="matrix(0.866218 0.499666 -0.878498 0.477746 26.248 14.9019)" fill="#0D87EF"/>
<rect width="0.305124" height="0.396076" transform="matrix(0.866218 0.499666 -0.878498 0.477746 26.7778 15.207)" fill="#0D87EF"/>
<rect width="0.305124" height="0.396076" transform="matrix(0.866218 0.499666 -0.878498 0.477746 27.3449 15.5348)" fill="#0D87EF"/>
<rect width="0.305124" height="0.396076" transform="matrix(0.866218 0.499666 -0.878498 0.477746 27.9131 15.8625)" fill="#0D87EF"/>
<rect width="0.305124" height="0.396076" transform="matrix(0.866218 0.499666 -0.878498 0.477746 27.8048 16.1892)" fill="#0D87EF"/>
<rect width="0.305124" height="0.396076" transform="matrix(0.866218 0.499666 -0.878498 0.477746 27.275 15.8841)" fill="#0D87EF"/>
<rect width="0.305124" height="0.396076" transform="matrix(0.866218 0.499666 -0.878498 0.477746 24.923 15.3269)" fill="#0D87EF"/>
<rect width="0.305124" height="0.396076" transform="matrix(0.866218 0.499666 -0.878498 0.477746 24.2715 15.341)" fill="#0D87EF"/>
<rect width="0.305124" height="0.396076" transform="matrix(0.866218 0.499666 -0.878498 0.477746 26.3517 15.7799)" fill="#0D87EF"/>
<rect width="0.305124" height="0.396076" transform="matrix(0.866218 0.499666 -0.878498 0.477746 24.7908 15.6797)" fill="#0D87EF"/>
<rect width="0.305124" height="0.396076" transform="matrix(0.866218 0.499666 -0.878498 0.477746 25.2013 16.716)" fill="#0D87EF"/>
<rect width="0.610247" height="0.396076" transform="matrix(0.866218 0.499666 -0.878498 0.477746 26.1648 15.2441)" fill="#0D87EF"/>
<rect width="0.610247" height="0.396076" transform="matrix(0.866218 0.499666 -0.878498 0.477746 26.9275 16.0734)" fill="#0D87EF"/>
<rect width="1.23575" height="0.396076" transform="matrix(0.866218 0.499666 -0.878498 0.477746 26.3004 16.1028)" fill="#0D87EF"/>
<rect width="0.915371" height="0.396076" transform="matrix(0.866218 0.499666 -0.878498 0.477746 25.8312 16.6696)" fill="#0D87EF"/>
<rect width="0.305124" height="0.396076" transform="matrix(0.866218 0.499666 -0.878498 0.477746 25.4825 16.8589)" fill="#0D87EF"/>
<rect width="0.656016" height="0.396076" transform="matrix(0.866218 0.499666 -0.878498 0.477746 25.4522 15.6319)" fill="#0D87EF"/>
<rect width="0.64076" height="0.396076" transform="matrix(0.866218 0.499666 -0.878498 0.477746 25.3334 15.9924)" fill="#0D87EF"/>
<rect width="1.26626" height="0.396076" transform="matrix(0.866218 0.499666 -0.878498 0.477746 24.4445 15.8688)" fill="#0D87EF"/>
<rect width="0.354233" height="0.354257" transform="matrix(0.878115 0.478449 -0.866617 0.498973 28.1192 23.1635)" fill="#0D87EF"/>
<rect width="0.354233" height="1.0982" transform="matrix(0.878115 0.478449 -0.866617 0.498973 25.5507 22.8475)" fill="#0D87EF"/>
<rect width="0.354233" height="0.726227" transform="matrix(0.878115 0.478449 -0.866617 0.498973 24.2931 23.5722)" fill="#0D87EF"/>
<rect width="0.354233" height="0.354257" transform="matrix(0.878115 0.478449 -0.866617 0.498973 26.8297 22.46)" fill="#0D87EF"/>
<rect width="0.354233" height="1.0982" transform="matrix(0.878115 0.478449 -0.866617 0.498973 23.0164 24.3059)" fill="#0D87EF"/>
<rect width="0.354233" height="1.0982" transform="matrix(0.878115 0.478449 -0.866617 0.498973 23.9718 24.1039)" fill="#0D87EF"/>
<rect width="0.354233" height="3.29459" transform="matrix(0.878115 0.478449 -0.866617 0.498973 26.832 22.8068)" fill="#0D87EF"/>
<rect width="0.354233" height="1.85985" transform="matrix(0.878115 0.478449 -0.866617 0.498973 27.5021 23.171)" fill="#0D87EF"/>
<rect width="0.407368" height="0.726227" transform="matrix(0.878115 0.478449 -0.866617 0.498973 27.4509 22.7992)" fill="#0D87EF"/>
<rect width="0.407368" height="0.336544" transform="matrix(0.878115 0.478449 -0.866617 0.498973 26.4821 23.3559)" fill="#0D87EF"/>
<rect width="0.354233" height="1.43474" transform="matrix(0.878115 0.478449 -0.866617 0.498973 25.5326 23.904)" fill="#0D87EF"/>
<rect width="0.354233" height="0.354257" transform="matrix(0.878115 0.478449 -0.866617 0.498973 25.2619 24.4614)" fill="#0D87EF"/>
<rect width="0.354233" height="1.11591" transform="matrix(0.878115 0.478449 -0.866617 0.498973 24.6471 24.7972)" fill="#0D87EF"/>
<rect width="0.7616" height="0.354257" transform="matrix(0.878115 0.478449 -0.866617 0.498973 23.3337 24.8219)" fill="#0D87EF"/>
<rect width="0.354233" height="0.354257" transform="matrix(0.878115 0.478449 -0.866617 0.498973 22.6886 25.193)" fill="#0D87EF"/>
<rect width="0.354233" height="0.354257" transform="matrix(0.878115 0.478449 -0.866617 0.498973 23.3529 25.176)" fill="#0D87EF"/>
<rect width="0.354233" height="0.354257" transform="matrix(0.878115 0.478449 -0.866617 0.498973 23.3413 25.5662)" fill="#0D87EF"/>
<rect width="0.354233" height="0.354257" transform="matrix(0.878115 0.478449 -0.866617 0.498973 28.1548 23.5438)" fill="#0D87EF"/>
<rect width="0.354233" height="0.354257" transform="matrix(0.878115 0.478449 -0.866617 0.498973 28.7736 23.5362)" fill="#0D87EF"/>
<rect width="0.354233" height="0.354257" transform="matrix(0.878115 0.478449 -0.866617 0.498973 29.3954 23.8753)" fill="#0D87EF"/>
<rect width="0.354233" height="0.354257" transform="matrix(0.878115 0.478449 -0.866617 0.498973 30.0626 24.2399)" fill="#0D87EF"/>
<rect width="0.354233" height="0.354257" transform="matrix(0.878115 0.478449 -0.866617 0.498973 30.7338 24.604)" fill="#0D87EF"/>
<rect width="0.354233" height="0.354257" transform="matrix(0.878115 0.478449 -0.866617 0.498973 30.7053 24.9337)" fill="#0D87EF"/>
<rect width="0.354233" height="0.354257" transform="matrix(0.878115 0.478449 -0.866617 0.498973 30.0829 24.5945)" fill="#0D87EF"/>
<rect width="0.354233" height="0.354257" transform="matrix(0.878115 0.478449 -0.866617 0.498973 27.526 23.9063)" fill="#0D87EF"/>
<rect width="0.354233" height="0.354257" transform="matrix(0.878115 0.478449 -0.866617 0.498973 26.8606 23.8882)" fill="#0D87EF"/>
<rect width="0.354233" height="0.354257" transform="matrix(0.878115 0.478449 -0.866617 0.498973 29.1089 24.4418)" fill="#0D87EF"/>
<rect width="0.354233" height="0.354257" transform="matrix(0.878115 0.478449 -0.866617 0.498973 27.1808 24.8022)" fill="#0D87EF"/>
<rect width="0.354233" height="0.354257" transform="matrix(0.878115 0.478449 -0.866617 0.498973 27.4812 24.2613)" fill="#0D87EF"/>
<rect width="0.354233" height="0.354257" transform="matrix(0.878115 0.478449 -0.866617 0.498973 28.1763 25.3445)" fill="#0D87EF"/>
<rect width="0.354233" height="0.354257" transform="matrix(0.878115 0.478449 -0.866617 0.498973 28.1844 26.0371)" fill="#0D87EF"/>
<rect width="0.354233" height="0.354257" transform="matrix(0.878115 0.478449 -0.866617 0.498973 28.206 26.4093)" fill="#0D87EF"/>
<rect width="0.354233" height="0.354257" transform="matrix(0.878115 0.478449 -0.866617 0.498973 27.5574 26.7802)" fill="#0D87EF"/>
<rect width="0.354233" height="0.354257" transform="matrix(0.878115 0.478449 -0.866617 0.498973 26.9141 27.1515)" fill="#0D87EF"/>
<rect width="1.18039" height="0.354257" transform="matrix(0.878115 0.478449 -0.866617 0.498973 25.8144 26.913)" fill="#0D87EF"/>
<rect width="0.354233" height="0.354257" transform="matrix(0.878115 0.478449 -0.866617 0.498973 26.86 26.416)" fill="#0D87EF"/>
<rect width="0.354233" height="0.354257" transform="matrix(0.878115 0.478449 -0.866617 0.498973 26.2533 26.0679)" fill="#0D87EF"/>
<rect width="0.354233" height="0.354257" transform="matrix(0.878115 0.478449 -0.866617 0.498973 24.3327 25.7446)" fill="#0D87EF"/>
<rect width="0.354233" height="0.354257" transform="matrix(0.878115 0.478449 -0.866617 0.498973 24.6378 25.5679)" fill="#0D87EF"/>
<rect width="0.354233" height="0.354257" transform="matrix(0.878115 0.478449 -0.866617 0.498973 26.2394 24.9772)" fill="#0D87EF"/>
<rect width="0.354233" height="0.354257" transform="matrix(0.878115 0.478449 -0.866617 0.498973 25.2712 25.5338)" fill="#0D87EF"/>
<rect width="0.708466" height="0.354257" transform="matrix(0.878115 0.478449 -0.866617 0.498973 28.7771 23.8829)" fill="#0D87EF"/>
<rect width="0.708466" height="0.354257" transform="matrix(0.878115 0.478449 -0.866617 0.498973 29.7761 24.7713)" fill="#0D87EF"/>
<rect width="1.43464" height="0.354257" transform="matrix(0.878115 0.478449 -0.866617 0.498973 29.1445 24.7703)" fill="#0D87EF"/>
<rect width="1.0627" height="0.354257" transform="matrix(0.878115 0.478449 -0.866617 0.498973 28.8115 25.3281)" fill="#0D87EF"/>
<rect width="0.354233" height="0.354257" transform="matrix(0.878115 0.478449 -0.866617 0.498973 28.5011 25.505)" fill="#0D87EF"/>
<rect width="0.7616" height="0.354257" transform="matrix(0.878115 0.478449 -0.866617 0.498973 28.1472 24.2453)" fill="#0D87EF"/>
<rect width="0.743889" height="0.354257" transform="matrix(0.878115 0.478449 -0.866617 0.498973 28.1192 24.6091)" fill="#0D87EF"/>
<rect width="1.47007" height="0.354257" transform="matrix(0.878115 0.478449 -0.866617 0.498973 27.1767 24.438)" fill="#0D87EF"/>
<rect width="1.08041" height="0.354257" transform="matrix(0.878115 0.478449 -0.866617 0.498973 28.1798 25.6734)" fill="#0D87EF"/>
<rect width="0.354233" height="0.690802" transform="matrix(0.878115 0.478449 -0.866617 0.498973 27.1837 25.1653)" fill="#0D87EF"/>
<rect width="0.354233" height="1.06277" transform="matrix(0.878115 0.478449 -0.866617 0.498973 26.219 24.64)" fill="#0D87EF"/>
<rect width="0.354233" height="1.13362" transform="matrix(0.878115 0.478449 -0.866617 0.498973 26.2592 25.3497)" fill="#0D87EF"/>
<rect width="0.354233" height="1.0982" transform="matrix(0.878115 0.478449 -0.866617 0.498973 27.547 25.7068)" fill="#0D87EF"/>
<rect width="0.743889" height="0.354257" transform="matrix(0.878115 0.478449 -0.866617 0.498973 26.2173 25.7048)" fill="#0D87EF"/>
<rect width="0.708466" height="0.708514" transform="matrix(0.878115 0.478449 -0.866617 0.498973 26.2557 26.4147)" fill="#0D87EF"/>
<rect width="0.354233" height="0.354257" transform="matrix(0.878115 0.478449 -0.866617 0.498973 26.8472 26.7707)" fill="#0D87EF"/>
<rect width="0.708466" height="1.06277" transform="matrix(0.878115 0.478449 -0.866617 0.498973 25.3079 25.8975)" fill="#0D87EF"/>
<rect width="0.708466" height="0.354257" transform="matrix(0.878115 0.478449 -0.866617 0.498973 24.0265 25.9214)" fill="#0D87EF"/>
<rect width="0.337662" height="0.337685" transform="matrix(0.869038 0.494746 -0.866441 0.499279 40.7105 23.5334)" fill="#0D87EF"/>
<rect width="0.337662" height="1.04682" transform="matrix(0.869038 0.494746 -0.866441 0.499279 38.2776 23.2042)" fill="#0D87EF"/>
<rect width="0.337662" height="0.692255" transform="matrix(0.869038 0.494746 -0.866441 0.499279 37.0783 23.8956)" fill="#0D87EF"/>
<path d="M39.0222 22.7172L39.3156 22.8843L39.023 23.0529L38.7296 22.8858L39.0222 22.7172Z" fill="#0D87EF"/>
<rect width="0.337662" height="1.04682" transform="matrix(0.869038 0.494746 -0.866441 0.499279 35.8632 24.5952)" fill="#0D87EF"/>
<rect width="0.337662" height="1.04682" transform="matrix(0.869038 0.494746 -0.866441 0.499279 36.7703 24.4081)" fill="#0D87EF"/>
<rect width="0.337662" height="3.14047" transform="matrix(0.869038 0.494746 -0.866441 0.499279 39.4931 23.1761)" fill="#0D87EF"/>
<rect width="0.337662" height="1.77285" transform="matrix(0.869038 0.494746 -0.866441 0.499279 40.1242 23.5352)" fill="#0D87EF"/>
<rect width="0.388311" height="0.692255" transform="matrix(0.869038 0.494746 -0.866441 0.499279 40.3688 22.9855)" fill="#0D87EF"/>
<rect width="0.388311" height="0.320801" transform="matrix(0.869038 0.494746 -0.866441 0.499279 39.1566 23.7054)" fill="#0D87EF"/>
<rect width="0.337662" height="1.36762" transform="matrix(0.869038 0.494746 -0.866441 0.499279 38.2496 24.2281)" fill="#0D87EF"/>
<rect width="0.337662" height="0.337685" transform="matrix(0.869038 0.494746 -0.866441 0.499279 37.9882 24.766)" fill="#0D87EF"/>
<rect width="0.337662" height="1.06371" transform="matrix(0.869038 0.494746 -0.866441 0.499279 37.4025 25.0858)" fill="#0D87EF"/>
<rect width="0.725972" height="0.337685" transform="matrix(0.869038 0.494746 -0.866441 0.499279 36.1584 25.098)" fill="#0D87EF"/>
<rect width="0.337662" height="0.337685" transform="matrix(0.869038 0.494746 -0.866441 0.499279 35.5442 25.4522)" fill="#0D87EF"/>
<rect width="0.337662" height="0.337685" transform="matrix(0.869038 0.494746 -0.866441 0.499279 36.1724 25.4416)" fill="#0D87EF"/>
<rect width="0.337662" height="0.337685" transform="matrix(0.869038 0.494746 -0.866441 0.499279 36.1596 25.8198)" fill="#0D87EF"/>
<rect width="0.337662" height="0.337685" transform="matrix(0.869038 0.494746 -0.866441 0.499279 40.7408 23.9026)" fill="#0D87EF"/>
<rect width="0.337662" height="0.337685" transform="matrix(0.869038 0.494746 -0.866441 0.499279 41.3264 23.9005)" fill="#0D87EF"/>
<rect width="0.337662" height="0.337685" transform="matrix(0.869038 0.494746 -0.866441 0.499279 41.9127 24.2349)" fill="#0D87EF"/>
<rect width="0.337662" height="0.337685" transform="matrix(0.869038 0.494746 -0.866441 0.499279 42.5432 24.594)" fill="#0D87EF"/>
<rect width="0.337662" height="0.337685" transform="matrix(0.869038 0.494746 -0.866441 0.499279 43.1754 24.9531)" fill="#0D87EF"/>
<rect width="0.337662" height="0.337685" transform="matrix(0.869038 0.494746 -0.866441 0.499279 43.1463 25.2724)" fill="#0D87EF"/>
<rect width="0.337662" height="0.337685" transform="matrix(0.869038 0.494746 -0.866441 0.499279 42.5578 24.9381)" fill="#0D87EF"/>
<rect width="0.337662" height="0.337685" transform="matrix(0.869038 0.494746 -0.866441 0.499279 40.1411 24.2481)" fill="#0D87EF"/>
<rect width="0.337662" height="0.337685" transform="matrix(0.869038 0.494746 -0.866441 0.499279 39.51 24.2248)" fill="#0D87EF"/>
<rect width="0.337662" height="0.337685" transform="matrix(0.869038 0.494746 -0.866441 0.499279 41.635 24.7812)" fill="#0D87EF"/>
<rect width="0.337662" height="0.337685" transform="matrix(0.869038 0.494746 -0.866441 0.499279 39.8052 25.1135)" fill="#0D87EF"/>
<rect width="0.337662" height="0.337685" transform="matrix(0.869038 0.494746 -0.866441 0.499279 40.0951 24.5919)" fill="#0D87EF"/>
<rect width="0.337662" height="0.337685" transform="matrix(0.869038 0.494746 -0.866441 0.499279 40.7437 25.648)" fill="#0D87EF"/>
<rect width="0.337662" height="0.337685" transform="matrix(0.869038 0.494746 -0.866441 0.499279 40.7477 26.3194)" fill="#0D87EF"/>
<rect width="0.337662" height="0.337685" transform="matrix(0.869038 0.494746 -0.866441 0.499279 40.7611 26.6803)" fill="#0D87EF"/>
<rect width="0.337662" height="0.337685" transform="matrix(0.869038 0.494746 -0.866441 0.499279 40.1493 27.0341)" fill="#0D87EF"/>
<rect width="0.337662" height="0.337685" transform="matrix(0.869038 0.494746 -0.866441 0.499279 39.5327 27.3883)" fill="#0D87EF"/>
<rect width="1.12517" height="0.337685" transform="matrix(0.869038 0.494746 -0.866441 0.499279 38.4906 27.1473)" fill="#0D87EF"/>
<rect width="0.337662" height="0.337685" transform="matrix(0.869038 0.494746 -0.866441 0.499279 39.4856 26.6748)" fill="#0D87EF"/>
<rect width="0.337662" height="0.337685" transform="matrix(0.869038 0.494746 -0.866441 0.499279 38.9145 26.3321)" fill="#0D87EF"/>
<rect width="0.337662" height="0.337685" transform="matrix(0.869038 0.494746 -0.866441 0.499279 37.0969 26.0015)" fill="#0D87EF"/>
<rect width="0.337662" height="0.337685" transform="matrix(0.869038 0.494746 -0.866441 0.499279 37.3891 25.8331)" fill="#0D87EF"/>
<rect width="0.337662" height="0.337685" transform="matrix(0.869038 0.494746 -0.866441 0.499279 38.9104 25.2747)" fill="#0D87EF"/>
<rect width="0.337662" height="0.337685" transform="matrix(0.869038 0.494746 -0.866441 0.499279 37.9888 25.8056)" fill="#0D87EF"/>
<rect width="0.675324" height="0.337685" transform="matrix(0.869038 0.494746 -0.866441 0.499279 41.3276 24.2368)" fill="#0D87EF"/>
<rect width="0.675324" height="0.337685" transform="matrix(0.869038 0.494746 -0.866441 0.499279 42.2672 25.1067)" fill="#0D87EF"/>
<rect width="1.36753" height="0.337685" transform="matrix(0.869038 0.494746 -0.866441 0.499279 41.6653 25.1001)" fill="#0D87EF"/>
<rect width="1.01299" height="0.337685" transform="matrix(0.869038 0.494746 -0.866441 0.499279 41.3456 25.6377)" fill="#0D87EF"/>
<rect width="0.337662" height="0.337685" transform="matrix(0.869038 0.494746 -0.866441 0.499279 41.0516 25.8066)" fill="#0D87EF"/>
<rect width="0.725972" height="0.337685" transform="matrix(0.869038 0.494746 -0.866441 0.499279 40.7268 24.5824)" fill="#0D87EF"/>
<rect width="0.70909" height="0.337685" transform="matrix(0.869038 0.494746 -0.866441 0.499279 40.6977 24.9347)" fill="#0D87EF"/>
<rect width="1.4013" height="0.337685" transform="matrix(0.869038 0.494746 -0.866441 0.499279 39.8029 24.7604)" fill="#0D87EF"/>
<rect width="1.02987" height="0.337685" transform="matrix(0.869038 0.494746 -0.866441 0.499279 40.7437 25.9669)" fill="#0D87EF"/>
<rect width="0.337662" height="0.658486" transform="matrix(0.869038 0.494746 -0.866441 0.499279 39.8052 25.4654)" fill="#0D87EF"/>
<rect width="0.337662" height="1.01306" transform="matrix(0.869038 0.494746 -0.866441 0.499279 38.8964 24.9476)" fill="#0D87EF"/>
<rect width="0.337662" height="1.08059" transform="matrix(0.869038 0.494746 -0.866441 0.499279 38.9267 25.6359)" fill="#0D87EF"/>
<rect width="0.337662" height="1.04682" transform="matrix(0.869038 0.494746 -0.866441 0.499279 40.1458 25.9937)" fill="#0D87EF"/>
<rect width="0.70909" height="0.337685" transform="matrix(0.869038 0.494746 -0.866441 0.499279 38.8842 25.9797)" fill="#0D87EF"/>
<rect width="0.675324" height="0.67537" transform="matrix(0.869038 0.494746 -0.866441 0.499279 38.9156 26.6681)" fill="#0D87EF"/>
<rect width="0.337662" height="0.337685" transform="matrix(0.869038 0.494746 -0.866441 0.499279 39.4716 27.0186)" fill="#0D87EF"/>
<rect width="0.675324" height="1.01306" transform="matrix(0.869038 0.494746 -0.866441 0.499279 38.0191 26.1585)" fill="#0D87EF"/>
<rect width="0.675324" height="0.337685" transform="matrix(0.869038 0.494746 -0.866441 0.499279 36.8052 26.1702)" fill="#0D87EF"/>
<rect width="0.341099" height="0.496172" transform="matrix(0.875692 0.48287 -0.869122 0.494597 47.3245 19.5217)" fill="#0D87EF"/>
<rect width="0.341099" height="1.42912" transform="matrix(0.875692 0.48287 -0.869122 0.494597 44.5289 19.4209)" fill="#0D87EF"/>
<rect width="0.341099" height="1.01715" transform="matrix(0.875692 0.48287 -0.869122 0.494597 42.5686 20.5413)" fill="#0D87EF"/>
<path d="M45.695 18.7619L45.9937 18.9266L45.5624 19.172L45.2637 19.0073L45.695 18.7619Z" fill="#0D87EF"/>
<rect width="0.341099" height="1.53813" transform="matrix(0.875692 0.48287 -0.869122 0.494597 40.7784 21.5599)" fill="#0D87EF"/>
<rect width="0.341099" height="1.53813" transform="matrix(0.875692 0.48287 -0.869122 0.494597 41.9818 21.209)" fill="#0D87EF"/>
<rect width="0.341099" height="4.6144" transform="matrix(0.875692 0.48287 -0.869122 0.494597 45.8609 19.3373)" fill="#0D87EF"/>
<rect width="0.341099" height="2.6049" transform="matrix(0.875692 0.48287 -0.869122 0.494597 46.5042 19.6913)" fill="#0D87EF"/>
<rect width="0.392263" height="1.01715" transform="matrix(0.875692 0.48287 -0.869122 0.494597 46.5904 19.2563)" fill="#0D87EF"/>
<rect width="0.392263" height="0.471363" transform="matrix(0.875692 0.48287 -0.869122 0.494597 45.2327 20.0293)" fill="#0D87EF"/>
<rect width="0.341099" height="2.0095" transform="matrix(0.875692 0.48287 -0.869122 0.494597 43.8949 20.7902)" fill="#0D87EF"/>
<rect width="0.341099" height="0.496172" transform="matrix(0.875692 0.48287 -0.869122 0.494597 43.3558 21.4828)" fill="#0D87EF"/>
<rect width="0.341099" height="1.56294" transform="matrix(0.875692 0.48287 -0.869122 0.494597 42.4982 21.9525)" fill="#0D87EF"/>
<rect width="0.733362" height="0.496172" transform="matrix(0.875692 0.48287 -0.869122 0.494597 40.9449 22.1348)" fill="#0D87EF"/>
<path d="M39.7585 22.6896L40.0572 22.8544L39.6259 23.0998L39.3272 22.935L39.7585 22.6896Z" fill="#0D87EF"/>
<rect width="0.341099" height="0.496172" transform="matrix(0.875692 0.48287 -0.869122 0.494597 40.5502 22.4548)" fill="#0D87EF"/>
<rect width="0.341099" height="0.496172" transform="matrix(0.875692 0.48287 -0.869122 0.494597 41.0946 22.8726)" fill="#0D87EF"/>
<rect width="0.341099" height="0.496172" transform="matrix(0.875692 0.48287 -0.869122 0.494597 47.1225 20.0574)" fill="#0D87EF"/>
<rect width="0.341099" height="0.496172" transform="matrix(0.875692 0.48287 -0.869122 0.494597 47.98 19.8413)" fill="#0D87EF"/>
<rect width="0.341099" height="0.496172" transform="matrix(0.875692 0.48287 -0.869122 0.494597 48.451 20.3059)" fill="#0D87EF"/>
<rect width="0.341099" height="0.496172" transform="matrix(0.875692 0.48287 -0.869122 0.494597 49.0943 20.66)" fill="#0D87EF"/>
<rect width="0.341099" height="0.496172" transform="matrix(0.875692 0.48287 -0.869122 0.494597 49.7341 21.014)" fill="#0D87EF"/>
<rect width="0.341099" height="0.496172" transform="matrix(0.875692 0.48287 -0.869122 0.494597 49.5717 21.408)" fill="#0D87EF"/>
<rect width="0.341099" height="0.496172" transform="matrix(0.875692 0.48287 -0.869122 0.494597 48.9744 21.0783)" fill="#0D87EF"/>
<rect width="0.341099" height="0.496172" transform="matrix(0.875692 0.48287 -0.869122 0.494597 46.2399 20.5604)" fill="#0D87EF"/>
<rect width="0.341099" height="0.496172" transform="matrix(0.875692 0.48287 -0.869122 0.494597 45.4632 20.6166)" fill="#0D87EF"/>
<rect width="0.341099" height="0.496172" transform="matrix(0.875692 0.48287 -0.869122 0.494597 47.8892 21.0107)" fill="#0D87EF"/>
<rect width="0.341099" height="0.496172" transform="matrix(0.875692 0.48287 -0.869122 0.494597 45.4778 21.6631)" fill="#0D87EF"/>
<rect width="0.341099" height="0.496172" transform="matrix(0.875692 0.48287 -0.869122 0.494597 46.0466 20.9866)" fill="#0D87EF"/>
<rect width="0.341099" height="0.496172" transform="matrix(0.875692 0.48287 -0.869122 0.494597 46.4337 22.19)" fill="#0D87EF"/>
<rect width="0.341099" height="0.496172" transform="matrix(0.875692 0.48287 -0.869122 0.494597 46.1694 23.0102)" fill="#0D87EF"/>
<rect width="0.341099" height="0.496172" transform="matrix(0.875692 0.48287 -0.869122 0.494597 46.0448 23.4492)" fill="#0D87EF"/>
<rect width="0.341099" height="0.496172" transform="matrix(0.875692 0.48287 -0.869122 0.494597 45.1401 23.9644)" fill="#0D87EF"/>
<rect width="0.341099" height="0.496172" transform="matrix(0.875692 0.48287 -0.869122 0.494597 44.2343 24.4798)" fill="#0D87EF"/>
<rect width="1.13663" height="0.496172" transform="matrix(0.875692 0.48287 -0.869122 0.494597 43.0326 24.3254)" fill="#0D87EF"/>
<rect width="0.341099" height="0.496172" transform="matrix(0.875692 0.48287 -0.869122 0.494597 44.4613 23.6141)" fill="#0D87EF"/>
<rect width="0.341099" height="0.496172" transform="matrix(0.875692 0.48287 -0.869122 0.494597 43.8832 23.2722)" fill="#0D87EF"/>
<rect width="0.341099" height="0.496172" transform="matrix(0.875692 0.48287 -0.869122 0.494597 41.7134 23.0325)" fill="#0D87EF"/>
<path d="M42.2543 22.6729L42.553 22.8376L42.1217 23.083L41.823 22.9183L42.2543 22.6729Z" fill="#0D87EF"/>
<rect width="0.341099" height="0.496172" transform="matrix(0.875692 0.48287 -0.869122 0.494597 44.3018 21.9804)" fill="#0D87EF"/>
<rect width="0.341099" height="0.496172" transform="matrix(0.875692 0.48287 -0.869122 0.494597 42.943 22.7532)" fill="#0D87EF"/>
<rect width="0.682197" height="0.496172" transform="matrix(0.875692 0.48287 -0.869122 0.494597 47.7204 20.3869)" fill="#0D87EF"/>
<rect width="0.682197" height="0.496172" transform="matrix(0.875692 0.48287 -0.869122 0.494597 48.5436 21.3239)" fill="#0D87EF"/>
<rect width="1.38145" height="0.496172" transform="matrix(0.875692 0.48287 -0.869122 0.494597 47.7984 21.3965)" fill="#0D87EF"/>
<rect width="1.0233" height="0.496172" transform="matrix(0.875692 0.48287 -0.869122 0.494597 47.1871 22.0968)" fill="#0D87EF"/>
<rect width="0.341099" height="0.496172" transform="matrix(0.875692 0.48287 -0.869122 0.494597 46.7545 22.3423)" fill="#0D87EF"/>
<rect width="0.733362" height="0.496172" transform="matrix(0.875692 0.48287 -0.869122 0.494597 46.8372 20.8898)" fill="#0D87EF"/>
<rect width="0.716307" height="0.496172" transform="matrix(0.875692 0.48287 -0.869122 0.494597 46.6596 21.3245)" fill="#0D87EF"/>
<rect width="1.41556" height="0.496172" transform="matrix(0.875692 0.48287 -0.869122 0.494597 45.6146 21.2318)" fill="#0D87EF"/>
<rect width="1.04035" height="0.496172" transform="matrix(0.875692 0.48287 -0.869122 0.494597 46.3092 22.5797)" fill="#0D87EF"/>
<rect width="0.341099" height="0.967536" transform="matrix(0.875692 0.48287 -0.869122 0.494597 45.3404 22.093)" fill="#0D87EF"/>
<rect width="0.341099" height="1.48852" transform="matrix(0.875692 0.48287 -0.869122 0.494597 44.4118 21.5826)" fill="#0D87EF"/>
<rect width="0.341099" height="1.58775" transform="matrix(0.875692 0.48287 -0.869122 0.494597 44.1772 22.4197)" fill="#0D87EF"/>
<rect width="0.341099" height="1.53813" transform="matrix(0.875692 0.48287 -0.869122 0.494597 45.5523 22.693)" fill="#0D87EF"/>
<rect width="0.716307" height="0.496172" transform="matrix(0.875692 0.48287 -0.869122 0.494597 43.9874 22.8456)" fill="#0D87EF"/>
<rect width="0.682197" height="0.992343" transform="matrix(0.875692 0.48287 -0.869122 0.494597 43.7522 23.6828)" fill="#0D87EF"/>
<rect width="0.341099" height="0.496172" transform="matrix(0.875692 0.48287 -0.869122 0.494597 44.3053 24.0363)" fill="#0D87EF"/>
<rect width="0.682197" height="1.48852" transform="matrix(0.875692 0.48287 -0.869122 0.494597 42.8411 23.1803)" fill="#0D87EF"/>
<rect width="0.682197" height="0.496172" transform="matrix(0.875692 0.48287 -0.869122 0.494597 41.1417 23.2779)" fill="#0D87EF"/>
<rect width="0.313205" height="0.47535" transform="matrix(0.848935 0.528497 -0.894058 0.447951 50.1614 18.2179)" fill="#0D87EF"/>
<rect width="0.313205" height="1.47358" transform="matrix(0.848935 0.528497 -0.894058 0.447951 47.5736 17.5228)" fill="#0D87EF"/>
<rect width="0.313205" height="0.47535" transform="matrix(0.848935 0.528497 -0.894058 0.447951 48.3666 17.0907)" fill="#0D87EF"/>
<rect width="0.313205" height="2.23377" transform="matrix(0.848935 0.528497 -0.894058 0.447951 48.4666 17.6432)" fill="#0D87EF"/>
<rect width="0.313205" height="2.49559" transform="matrix(0.848935 0.528497 -0.894058 0.447951 49.4691 18.2655)" fill="#0D87EF"/>
<rect width="0.849025" height="0.974468" transform="matrix(0.848935 0.528497 -0.894058 0.447951 49.1722 17.6039)" fill="#0D87EF"/>
<rect width="0.85211" height="0.451583" transform="matrix(0.848935 0.528497 -0.894058 0.447951 47.8309 18.2729)" fill="#0D87EF"/>
<rect width="0.313205" height="0.47535" transform="matrix(0.848935 0.528497 -0.894058 0.447951 50.0187 18.6318)" fill="#0D87EF"/>
<rect width="0.313205" height="0.47535" transform="matrix(0.848935 0.528497 -0.894058 0.447951 50.7086 18.584)" fill="#0D87EF"/>
<rect width="0.313205" height="0.47535" transform="matrix(0.848935 0.528497 -0.894058 0.447951 51.2425 18.9152)" fill="#0D87EF"/>
<rect width="0.313205" height="0.47535" transform="matrix(0.848935 0.528497 -0.894058 0.447951 51.8136 19.271)" fill="#0D87EF"/>
<rect width="0.313205" height="0.47535" transform="matrix(0.848935 0.528497 -0.894058 0.447951 52.3853 19.6269)" fill="#0D87EF"/>
<rect width="0.313205" height="0.47535" transform="matrix(0.848935 0.528497 -0.894058 0.447951 52.1996 19.9891)" fill="#0D87EF"/>
<rect width="0.313205" height="0.47535" transform="matrix(0.848935 0.528497 -0.894058 0.447951 51.668 19.6579)" fill="#0D87EF"/>
<rect width="0.313205" height="0.47535" transform="matrix(0.848935 0.528497 -0.894058 0.447951 49.1478 19.0682)" fill="#0D87EF"/>
<rect width="0.313205" height="0.47535" transform="matrix(0.848935 0.528497 -0.894058 0.447951 48.4154 19.091)" fill="#0D87EF"/>
<rect width="0.313205" height="0.47535" transform="matrix(0.848935 0.528497 -0.894058 0.447951 50.6556 19.553)" fill="#0D87EF"/>
<rect width="0.313205" height="0.47535" transform="matrix(0.848935 0.528497 -0.894058 0.447951 48.93 19.4595)" fill="#0D87EF"/>
<rect width="0.313205" height="0.47535" transform="matrix(0.848935 0.528497 -0.894058 0.447951 49.1926 20.5999)" fill="#0D87EF"/>
<rect width="0.62641" height="0.47535" transform="matrix(0.848935 0.528497 -0.894058 0.447951 50.5508 18.9629)" fill="#0D87EF"/>
<rect width="0.62641" height="0.47535" transform="matrix(0.848935 0.528497 -0.894058 0.447951 51.2436 19.8709)" fill="#0D87EF"/>
<rect width="1.26848" height="0.47535" transform="matrix(0.848935 0.528497 -0.894058 0.447951 50.5386 19.9102)" fill="#0D87EF"/>
<rect width="0.939616" height="0.47535" transform="matrix(0.848935 0.528497 -0.894058 0.447951 49.904 20.5416)" fill="#0D87EF"/>
<rect width="0.313205" height="0.47535" transform="matrix(0.848935 0.528497 -0.894058 0.447951 49.479 20.7547)" fill="#0D87EF"/>
<rect width="0.673391" height="0.47535" transform="matrix(0.848935 0.528497 -0.894058 0.447951 49.6793 19.3993)" fill="#0D87EF"/>
<rect width="0.657731" height="0.47535" transform="matrix(0.848935 0.528497 -0.894058 0.447951 49.479 19.7992)" fill="#0D87EF"/>
<rect width="1.2998" height="0.47535" transform="matrix(0.848935 0.528497 -0.894058 0.447951 48.5062 19.6723)" fill="#0D87EF"/>
<path d="M32.774 13.0389L28.9281 10.7698L32.6594 8.62482L36.4831 10.8492L32.774 13.0389Z" stroke="#0D87EF"/>
<mask id="path-403-inside-3_1_17" fill="white">
<path d="M31.1789 10.7354L32.6583 9.88674L34.1606 10.7354L32.7156 11.6184L31.1789 10.7354Z"/>
</mask>
<path d="M31.1789 10.7354L13.2657 -20.4915L-41.1237 10.7086L13.2427 41.949L31.1789 10.7354ZM32.6583 9.88674L50.3645 -21.458L32.5213 -31.5373L14.7452 -21.3402L32.6583 9.88674ZM34.1606 10.7354L52.9328 41.4535L105.195 9.51526L51.8668 -20.6093L34.1606 10.7354ZM32.7156 11.6184L14.7794 42.8321L33.2805 53.4633L51.4878 42.3366L32.7156 11.6184ZM49.092 41.9623L50.5714 41.1137L14.7452 -21.3402L13.2657 -20.4915L49.092 41.9623ZM14.9521 41.2315L16.4544 42.0801L51.8668 -20.6093L50.3645 -21.458L14.9521 41.2315ZM15.3884 -19.9828L13.9434 -19.0997L51.4878 42.3366L52.9328 41.4535L15.3884 -19.9828ZM50.6518 -19.5952L49.1151 -20.4783L13.2427 41.949L14.7794 42.8321L50.6518 -19.5952Z" fill="#0D87EF" mask="url(#path-403-inside-3_1_17)"/>
<rect width="0.336743" height="0.346671" transform="matrix(0.868471 0.49574 -0.876326 0.481718 23.9826 15.3904)" fill="#0D87EF"/>
<rect width="0.336743" height="1.07468" transform="matrix(0.868471 0.49574 -0.876326 0.481718 21.5193 15.0568)" fill="#0D87EF"/>
<rect width="0.336743" height="0.710678" transform="matrix(0.868471 0.49574 -0.876326 0.481718 20.2741 15.7414)" fill="#0D87EF"/>
<rect width="0.336743" height="0.346671" transform="matrix(0.868471 0.49574 -0.876326 0.481718 22.7687 14.6975)" fill="#0D87EF"/>
<rect width="0.336743" height="1.07468" transform="matrix(0.868471 0.49574 -0.876326 0.481718 19.0136 16.4346)" fill="#0D87EF"/>
<rect width="0.336743" height="1.07468" transform="matrix(0.868471 0.49574 -0.876326 0.481718 19.9428 16.2507)" fill="#0D87EF"/>
<rect width="0.336743" height="3.22405" transform="matrix(0.868471 0.49574 -0.876326 0.481718 22.7576 15.0319)" fill="#0D87EF"/>
<rect width="0.336743" height="1.82003" transform="matrix(0.868471 0.49574 -0.876326 0.481718 23.3858 15.3907)" fill="#0D87EF"/>
<rect width="0.387255" height="0.710678" transform="matrix(0.868471 0.49574 -0.876326 0.481718 23.3544 15.0317)" fill="#0D87EF"/>
<rect width="0.387255" height="0.329339" transform="matrix(0.868471 0.49574 -0.876326 0.481718 22.3961 15.5577)" fill="#0D87EF"/>
<rect width="0.336743" height="1.40402" transform="matrix(0.868471 0.49574 -0.876326 0.481718 21.4547 16.0754)" fill="#0D87EF"/>
<rect width="0.336743" height="0.346671" transform="matrix(0.868471 0.49574 -0.876326 0.481718 21.1689 16.6099)" fill="#0D87EF"/>
<rect width="0.336743" height="1.09202" transform="matrix(0.868471 0.49574 -0.876326 0.481718 20.5617 16.9267)" fill="#0D87EF"/>
<rect width="0.723998" height="0.346671" transform="matrix(0.868471 0.49574 -0.876326 0.481718 19.2966 16.9356)" fill="#0D87EF"/>
<rect width="0.336743" height="0.346671" transform="matrix(0.868471 0.49574 -0.876326 0.481718 18.6579 17.2863)" fill="#0D87EF"/>
<rect width="0.336743" height="0.346671" transform="matrix(0.868471 0.49574 -0.876326 0.481718 19.2977 17.2776)" fill="#0D87EF"/>
<rect width="0.336743" height="0.346671" transform="matrix(0.868471 0.49574 -0.876326 0.481718 19.271 17.6536)" fill="#0D87EF"/>
<rect width="0.336743" height="0.346671" transform="matrix(0.868471 0.49574 -0.876326 0.481718 23.9994 15.7578)" fill="#0D87EF"/>
<rect width="0.336743" height="0.346671" transform="matrix(0.868471 0.49574 -0.876326 0.481718 24.5968 15.7573)" fill="#0D87EF"/>
<rect width="0.336743" height="0.346671" transform="matrix(0.868471 0.49574 -0.876326 0.481718 25.1813 16.0913)" fill="#0D87EF"/>
<rect width="0.336743" height="0.346671" transform="matrix(0.868471 0.49574 -0.876326 0.481718 25.81 16.4503)" fill="#0D87EF"/>
<rect width="0.336743" height="0.346671" transform="matrix(0.868471 0.49574 -0.876326 0.481718 26.4382 16.8089)" fill="#0D87EF"/>
<rect width="0.336743" height="0.346671" transform="matrix(0.868471 0.49574 -0.876326 0.481718 26.398 17.1267)" fill="#0D87EF"/>
<rect width="0.336743" height="0.346671" transform="matrix(0.868471 0.49574 -0.876326 0.481718 25.8141 16.7925)" fill="#0D87EF"/>
<rect width="0.336743" height="0.346671" transform="matrix(0.868471 0.49574 -0.876326 0.481718 23.3777 16.1)" fill="#0D87EF"/>
<rect width="0.336743" height="0.346671" transform="matrix(0.868471 0.49574 -0.876326 0.481718 22.7373 16.0752)" fill="#0D87EF"/>
<rect width="0.336743" height="0.346671" transform="matrix(0.868471 0.49574 -0.876326 0.481718 24.8785 16.6343)" fill="#0D87EF"/>
<rect width="0.336743" height="0.346671" transform="matrix(0.868471 0.49574 -0.876326 0.481718 23.0062 16.9602)" fill="#0D87EF"/>
<rect width="0.336743" height="0.346671" transform="matrix(0.868471 0.49574 -0.876326 0.481718 23.32 16.442)" fill="#0D87EF"/>
<rect width="0.336743" height="0.346671" transform="matrix(0.868471 0.49574 -0.876326 0.481718 23.9401 17.4943)" fill="#0D87EF"/>
<rect width="0.336743" height="0.346671" transform="matrix(0.868471 0.49574 -0.876326 0.481718 23.9191 18.1622)" fill="#0D87EF"/>
<rect width="0.336743" height="0.346671" transform="matrix(0.868471 0.49574 -0.876326 0.481718 23.9214 18.5213)" fill="#0D87EF"/>
<rect width="0.336743" height="0.346671" transform="matrix(0.868471 0.49574 -0.876326 0.481718 23.2834 18.8718)" fill="#0D87EF"/>
<rect width="0.336743" height="0.346671" transform="matrix(0.868471 0.49574 -0.876326 0.481718 22.6465 19.2226)" fill="#0D87EF"/>
<rect width="1.12211" height="0.346671" transform="matrix(0.868471 0.49574 -0.876326 0.481718 21.5944 18.9802)" fill="#0D87EF"/>
<rect width="0.336743" height="0.346671" transform="matrix(0.868471 0.49574 -0.876326 0.481718 22.6237 18.5127)" fill="#0D87EF"/>
<rect width="0.336743" height="0.346671" transform="matrix(0.868471 0.49574 -0.876326 0.481718 22.0538 18.1703)" fill="#0D87EF"/>
<rect width="0.336743" height="0.346671" transform="matrix(0.868471 0.49574 -0.876326 0.481718 20.2164 17.8368)" fill="#0D87EF"/>
<rect width="0.336743" height="0.346671" transform="matrix(0.868471 0.49574 -0.876326 0.481718 20.5209 17.6699)" fill="#0D87EF"/>
<rect width="0.336743" height="0.346671" transform="matrix(0.868471 0.49574 -0.876326 0.481718 22.0905 17.1183)" fill="#0D87EF"/>
<rect width="0.336743" height="0.346671" transform="matrix(0.868471 0.49574 -0.876326 0.481718 21.1328 17.6441)" fill="#0D87EF"/>
<rect width="0.673486" height="0.346671" transform="matrix(0.868471 0.49574 -0.876326 0.481718 24.5851 16.0917)" fill="#0D87EF"/>
<rect width="0.673486" height="0.346671" transform="matrix(0.868471 0.49574 -0.876326 0.481718 25.5085 16.9597)" fill="#0D87EF"/>
<rect width="1.36381" height="0.346671" transform="matrix(0.868471 0.49574 -0.876326 0.481718 24.8989 16.9514)" fill="#0D87EF"/>
<rect width="1.01023" height="0.346671" transform="matrix(0.868471 0.49574 -0.876326 0.481718 24.5531 17.4857)" fill="#0D87EF"/>
<rect width="0.336743" height="0.346671" transform="matrix(0.868471 0.49574 -0.876326 0.481718 24.2486 17.6527)" fill="#0D87EF"/>
<rect width="0.723998" height="0.346671" transform="matrix(0.868471 0.49574 -0.876326 0.481718 23.9633 16.4339)" fill="#0D87EF"/>
<rect width="0.707162" height="0.346671" transform="matrix(0.868471 0.49574 -0.876326 0.481718 23.9214 16.7846)" fill="#0D87EF"/>
<rect width="1.39748" height="0.346671" transform="matrix(0.868471 0.49574 -0.876326 0.481718 23.0167 16.6089)" fill="#0D87EF"/>
<rect width="1.02707" height="0.346671" transform="matrix(0.868471 0.49574 -0.876326 0.481718 23.9307 17.8114)" fill="#0D87EF"/>
<rect width="0.336743" height="0.67601" transform="matrix(0.868471 0.49574 -0.876326 0.481718 22.9928 17.3102)" fill="#0D87EF"/>
<rect width="0.336743" height="1.04002" transform="matrix(0.868471 0.49574 -0.876326 0.481718 22.087 16.7928)" fill="#0D87EF"/>
<rect width="0.336743" height="1.10935" transform="matrix(0.868471 0.49574 -0.876326 0.481718 22.0922 17.4776)" fill="#0D87EF"/>
<rect width="0.336743" height="1.07468" transform="matrix(0.868471 0.49574 -0.876326 0.481718 23.3195 17.8366)" fill="#0D87EF"/>
<rect width="0.707162" height="0.346671" transform="matrix(0.868471 0.49574 -0.876326 0.481718 22.0375 17.8197)" fill="#0D87EF"/>
<rect width="0.673486" height="0.693343" transform="matrix(0.868471 0.49574 -0.876326 0.481718 22.0445 18.5046)" fill="#0D87EF"/>
<rect width="0.336743" height="0.346671" transform="matrix(0.868471 0.49574 -0.876326 0.481718 22.5975 18.8547)" fill="#0D87EF"/>
<rect width="0.673486" height="1.04002" transform="matrix(0.868471 0.49574 -0.876326 0.481718 21.152 17.9952)" fill="#0D87EF"/>
<rect width="0.673486" height="0.346671" transform="matrix(0.868471 0.49574 -0.876326 0.481718 19.9137 18.0039)" fill="#0D87EF"/>
<path d="M17.9701 22.0078L14.1242 19.7387L17.8555 17.5937L21.6793 19.8181L17.9701 22.0078Z" stroke="#0D87EF"/>
<path d="M33.7772 32.7165L34.0283 32.5694L34.1756 37.093L33.9245 37.2399L33.7772 32.7165Z" fill="#0D87EF"/>
<path d="M34.1133 32.518L34.1972 32.4702L34.3435 36.9993L34.2596 37.0432L34.1133 32.518Z" fill="#0D87EF"/>
<path d="M34.2839 32.4196L34.5349 32.269L34.6815 36.8055L34.4302 36.9492L34.2839 32.4196Z" fill="#0D87EF"/>
<path d="M34.6198 32.2194L34.8709 32.0708L35.0175 36.6087L34.7665 36.7588L34.6198 32.2194Z" fill="#0D87EF"/>
<path d="M34.9548 32.021L35.0386 31.9732L35.1853 36.5142L35.1016 36.5658L34.9548 32.021Z" fill="#0D87EF"/>
<path d="M35.2907 31.8209L35.3745 31.7738L35.5214 36.3202L35.4375 36.3664L35.2907 31.8209Z" fill="#0D87EF"/>
<path d="M35.4609 31.7219L35.5445 31.671L35.6916 36.2233L35.6079 36.2728L35.4609 31.7219Z" fill="#0D87EF"/>
<path d="M35.6312 31.62L35.8823 31.4715L36.0295 36.0273L35.7784 36.1747L35.6312 31.62Z" fill="#0D87EF"/>
<path d="M35.9679 31.4247L36.0517 31.3765L36.1989 35.9319L36.1151 35.9795L35.9679 31.4247Z" fill="#0D87EF"/>
<path d="M36.137 31.3209L36.3883 31.1765L36.5357 35.7384L36.2844 35.8825L36.137 31.3209Z" fill="#0D87EF"/>
<path d="M36.4715 31.1279L36.5552 31.0794L36.7027 35.6416L36.6189 35.689L36.4715 31.1279Z" fill="#0D87EF"/>
<path d="M36.8093 30.9239L36.893 30.875L37.0408 35.4474L36.957 35.494L36.8093 30.9239Z" fill="#0D87EF"/>
<path d="M36.9776 30.8287L37.0612 30.7791L37.2089 35.3487L37.1253 35.3992L36.9776 30.8287Z" fill="#0D87EF"/>
<path d="M37.1476 30.7297L37.2312 30.6802L37.3791 35.2564L37.2952 35.2985L37.1476 30.7297Z" fill="#0D87EF"/>
<path d="M37.3156 30.6271L37.5667 30.4803L37.7146 35.0586L37.4635 35.2039L37.3156 30.6271Z" fill="#0D87EF"/>
<path d="M37.8225 30.3305L37.9062 30.2791L38.0544 34.8659L37.9707 34.9156L37.8225 30.3305Z" fill="#0D87EF"/>
<path d="M37.9893 30.2321L38.2404 30.0836L38.3887 34.6723L38.1375 34.8184L37.9893 30.2321Z" fill="#0D87EF"/>
<path d="M38.3288 30.029L38.5799 29.8805L38.7285 34.4787L38.4773 34.6248L38.3288 30.029Z" fill="#0D87EF"/>
<path d="M38.6651 29.8329L38.7487 29.7793L38.8974 34.3803L38.8137 34.429L38.6651 29.8329Z" fill="#0D87EF"/>
<path d="M38.8341 29.737L39.0852 29.5882L39.2338 34.1872L38.9826 34.3318L38.8341 29.737Z" fill="#0D87EF"/>
<path d="M39.3394 29.4327L39.423 29.3809L39.5721 33.9946L39.4885 34.046L39.3394 29.4327Z" fill="#0D87EF"/>
<path d="M39.506 29.3323L39.5895 29.2794L39.7388 33.898L39.6551 33.947L39.506 29.3323Z" fill="#0D87EF"/>
<path d="M39.677 29.2372L39.7606 29.1865L39.9098 33.8014L39.826 33.849L39.677 29.2372Z" fill="#0D87EF"/>
<path d="M40.0123 29.0264L40.2637 28.8871L40.425 33.5149L40.1738 33.6584L40.0123 29.0264Z" fill="#0D87EF"/>
<path d="M40.3501 28.8449L40.4336 28.7923L40.5949 33.4186L40.5112 33.4666L40.3501 28.8449Z" fill="#0D87EF"/>
<path d="M40.5198 28.7314L40.7712 28.5947L40.9327 33.2274L40.6816 33.3706L40.5198 28.7314Z" fill="#0D87EF"/>
<path d="M40.8566 28.5444L40.9402 28.4925L41.1019 33.1315L41.0182 33.1787L40.8566 28.5444Z" fill="#0D87EF"/>
<path d="M41.0263 28.4385L41.2775 28.29L41.4396 32.9406L41.1882 33.0821L41.0263 28.4385Z" fill="#0D87EF"/>
<path d="M41.3635 28.2437L41.6145 28.0947L41.7768 32.7488L41.5255 32.8909L41.3635 28.2437Z" fill="#0D87EF"/>
<path d="M41.8678 27.9455L41.9516 27.8973L42.114 32.556L42.0302 32.6032L41.8678 27.9455Z" fill="#0D87EF"/>
<path d="M42.0356 27.8454L42.1192 27.7967L42.2818 32.4596L42.1981 32.5073L42.0356 27.8454Z" fill="#0D87EF"/>
<path d="M46.4202 25.2616L46.5038 25.2102L46.6696 29.9657L46.5857 30.0112L46.4202 25.2616Z" fill="#0D87EF"/>
<path d="M46.5899 25.1606L46.8409 25.0099L47.0069 29.7721L46.7557 29.9167L46.5899 25.1606Z" fill="#0D87EF"/>
<path d="M46.9245 24.967L47.0081 24.915L47.1741 29.6772L47.0902 29.724L46.9245 24.967Z" fill="#0D87EF"/>
<path d="M47.2617 24.7678L47.3453 24.7153L47.5115 29.4842L47.4276 29.5327L47.2617 24.7678Z" fill="#0D87EF"/>
<path d="M47.4308 24.6695L47.6817 24.5179L47.8482 29.294L47.5968 29.4346L47.4308 24.6695Z" fill="#0D87EF"/>
<path d="M47.7706 24.4642L48.0217 24.3199L48.1884 29.1L47.9371 29.2432L47.7706 24.4642Z" fill="#0D87EF"/>
<path d="M48.1053 24.2644L48.3565 24.1196L48.5234 28.9081L48.2722 29.0522L48.1053 24.2644Z" fill="#0D87EF"/>
<path d="M48.4417 24.07L48.5255 24.021L48.6926 28.8135L48.6087 28.8612L48.4417 24.07Z" fill="#0D87EF"/>
<path d="M48.7801 23.8716L48.8636 23.8201L49.031 28.6206L48.9472 28.6679L48.7801 23.8716Z" fill="#0D87EF"/>
<path d="M48.9488 23.7706L49.0325 23.7215L49.1999 28.5234L49.1162 28.572L48.9488 23.7706Z" fill="#0D87EF"/>
<path d="M49.1158 23.6717L49.1995 23.6247L49.3669 28.4284L49.2833 28.4761L49.1158 23.6717Z" fill="#0D87EF"/>
<path d="M49.2859 23.5755L49.3695 23.5229L49.5371 28.3314L49.4535 28.3797L49.2859 23.5755Z" fill="#0D87EF"/>
<path d="M49.4547 23.471L49.7058 23.3238L49.8738 28.1405L49.6223 28.284L49.4547 23.471Z" fill="#0D87EF"/>
<path d="M49.9602 23.175L50.0439 23.1257L50.2121 27.9509L50.1282 27.9954L49.9602 23.175Z" fill="#0D87EF"/>
<path d="M50.1298 23.0768L50.3808 22.9276L50.5492 27.7575L50.2978 27.8988L50.1298 23.0768Z" fill="#0D87EF"/>
<path d="M50.4667 22.8768L50.5504 22.8287L50.7189 27.6611L50.6352 27.7088L50.4667 22.8768Z" fill="#0D87EF"/>
<path d="M50.8029 22.6784L50.8866 22.629L51.0554 27.469L50.9714 27.5173L50.8029 22.6784Z" fill="#0D87EF"/>
<path d="M50.9727 22.578L51.2237 22.4292L51.3928 27.2789L51.1413 27.4209L50.9727 22.578Z" fill="#0D87EF"/>
<path d="M51.477 22.2782L51.5607 22.2313L51.7298 27.0834L51.6461 27.1329L51.477 22.2782Z" fill="#0D87EF"/>
<path d="M51.6476 22.182L51.8984 22.0284L52.0681 26.8959L51.8167 27.0357L51.6476 22.182Z" fill="#0D87EF"/>
<path d="M52.0835 22.3851L52.0688 21.93L52.1671 21.8784L52.174 22.0914L52.3361 26.7406L52.2371 26.7963L52.0835 22.3851Z" fill="#0D87EF"/>
<path d="M52.3388 21.7779L52.4223 21.726L52.5921 26.5946L52.5084 26.6429L52.3388 21.7779Z" fill="#0D87EF"/>
<path d="M52.5011 21.6828L52.5835 21.6274L52.7534 26.5018L52.6708 26.5501L52.5011 21.6828Z" fill="#0D87EF"/>
<path d="M52.6676 21.5831L52.9151 21.4344L53.0852 26.3155L52.8374 26.4553L52.6676 21.5831Z" fill="#0D87EF"/>
<path d="M52.9976 21.388L53.0801 21.3364L53.2504 26.2211L53.1677 26.267L52.9976 21.388Z" fill="#0D87EF"/>
<path d="M53.1613 21.2906L53.2437 21.2365L53.4142 26.1284L53.3316 26.1749L53.1613 21.2906Z" fill="#0D87EF"/>
<path d="M53.2888 21.2155L53.3828 21.1415L53.5538 26.0477L53.4591 26.1001L53.2888 21.2155Z" fill="#0D87EF"/>
<path d="M42.5203 27.5009L42.7334 27.3458L43.7238 50.9511L43.5037 51.0611L42.5203 27.5009Z" fill="#0D87EF"/>
<path d="M42.9685 27.2269L43.0638 27.1807L44.0001 50.8105L43.8901 50.865L42.9685 27.2269Z" fill="#0D87EF"/>
<path d="M43.3374 27.0463L43.3924 26.9913L44.2697 50.6728L44.1637 50.731L43.3374 27.0463Z" fill="#0D87EF"/>
<path d="M43.4998 26.9435L43.5555 26.9057L44.5466 50.5283L44.4366 50.5833L43.4998 26.9435Z" fill="#0D87EF"/>
<path d="M43.8872 26.7048L44.1623 26.5395L45.0991 50.2356L44.7689 50.4009L43.8872 26.7048Z" fill="#0D87EF"/>
<path d="M44.2733 26.4656L44.6438 26.2649L45.649 49.9625L45.3188 50.1258L44.2733 26.4656Z" fill="#0D87EF"/>
<path d="M44.8781 26.1353L44.9835 26.074L45.9241 49.8094L45.8141 49.864L44.8781 26.1353Z" fill="#0D87EF"/>
<path d="M45.1031 26.0043L45.2632 25.9152L46.144 49.697L46.034 49.752L45.1031 26.0043Z" fill="#0D87EF"/>
<path d="M45.3746 25.8602L45.5969 25.7235L46.5851 49.4655L46.365 49.5755L45.3746 25.8602Z" fill="#0D87EF"/>
<path d="M45.7047 25.6401L45.8456 25.5807L46.8074 49.3463L46.6951 49.4104L45.7047 25.6401Z" fill="#0D87EF"/>
<path d="M46.0344 25.475L46.2545 25.365L47.1349 49.1903L46.9148 49.3003L46.0344 25.475Z" fill="#0D87EF"/>
<path d="M46.3624 25.2902L46.6375 25.1249L47.5859 48.9798L47.2742 49.1248L46.3624 25.2902Z" fill="#0D87EF"/>
<rect width="0.292663" height="0.47535" transform="matrix(0.84691 0.531736 -0.895763 0.444533 36.5476 26.2562)" fill="#0D87EF"/>
<rect width="0.292663" height="1.47359" transform="matrix(0.84691 0.531736 -0.895763 0.444533 34.0797 25.6241)" fill="#0D87EF"/>
<rect width="0.292663" height="0.47535" transform="matrix(0.84691 0.531736 -0.895763 0.444533 34.8755 25.1962)" fill="#0D87EF"/>
<rect width="0.292663" height="2.23377" transform="matrix(0.84691 0.531736 -0.895763 0.444533 34.9384 25.7271)" fill="#0D87EF"/>
<rect width="0.292663" height="1.92156" transform="matrix(0.84691 0.531736 -0.895763 0.444533 35.8734 26.312)" fill="#0D87EF"/>
<rect width="0.793341" height="0.974468" transform="matrix(0.84691 0.531736 -0.895763 0.444533 35.6266 25.6789)" fill="#0D87EF"/>
<rect width="0.796224" height="0.451583" transform="matrix(0.84691 0.531736 -0.895763 0.444533 34.2835 26.3428)" fill="#0D87EF"/>
<rect width="0.292663" height="0.47535" transform="matrix(0.84691 0.531736 -0.895763 0.444533 36.384 26.6569)" fill="#0D87EF"/>
<rect width="0.292663" height="0.47535" transform="matrix(0.84691 0.531736 -0.895763 0.444533 37.0593 26.6008)" fill="#0D87EF"/>
<rect width="0.292663" height="0.47535" transform="matrix(0.84691 0.531736 -0.895763 0.444533 37.5536 26.9122)" fill="#0D87EF"/>
<rect width="0.292663" height="0.47535" transform="matrix(0.84691 0.531736 -0.895763 0.444533 38.0886 27.2469)" fill="#0D87EF"/>
<rect width="0.292663" height="0.47535" transform="matrix(0.84691 0.531736 -0.895763 0.444533 38.6207 27.5813)" fill="#0D87EF"/>
<rect width="0.292663" height="0.47535" transform="matrix(0.84691 0.531736 -0.895763 0.444533 38.4176 27.933)" fill="#0D87EF"/>
<rect width="0.292663" height="0.47535" transform="matrix(0.84691 0.531736 -0.895763 0.444533 37.9204 27.6216)" fill="#0D87EF"/>
<rect width="0.292663" height="0.47535" transform="matrix(0.84691 0.531736 -0.895763 0.444533 35.5119 27.0901)" fill="#0D87EF"/>
<rect width="0.292663" height="0.47535" transform="matrix(0.84691 0.531736 -0.895763 0.444533 34.8016 27.1226)" fill="#0D87EF"/>
<rect width="0.292663" height="0.47535" transform="matrix(0.84691 0.531736 -0.895763 0.444533 36.9464 27.5351)" fill="#0D87EF"/>
<rect width="0.292663" height="0.47535" transform="matrix(0.84691 0.531736 -0.895763 0.444533 35.2773 27.4702)" fill="#0D87EF"/>
<rect width="0.585327" height="0.47535" transform="matrix(0.84691 0.531736 -0.895763 0.444533 36.8812 26.9683)" fill="#0D87EF"/>
<rect width="0.585327" height="0.47535" transform="matrix(0.84691 0.531736 -0.895763 0.444533 37.496 27.833)" fill="#0D87EF"/>
<rect width="0.629226" height="0.47535" transform="matrix(0.84691 0.531736 -0.895763 0.444533 36.0091 27.4013)" fill="#0D87EF"/>
<rect width="0.614593" height="0.47535" transform="matrix(0.84691 0.531736 -0.895763 0.444533 35.7884 27.7895)" fill="#0D87EF"/>
<path d="M15.2731 45.8338L12.752 44.3057L12.8065 43.8322L15.3277 45.3603L15.2731 45.8338Z" fill="#0D87EF"/>
<rect x="14.5229" y="44.9038" width="0.770334" height="0.440191" fill="#0D87EF"/>
<rect x="13.7526" y="44.4636" width="0.660286" height="0.440191" fill="#0D87EF"/>
<path d="M12.7618 21.2435L13.1469 21.4657L13.202 44.2435H12.7618V21.2435Z" fill="#0D87EF"/>
<rect x="13.0919" y="43.6932" width="0.880381" height="0.770334" fill="#0D87EF"/>
<rect x="13.9727" y="43.6932" width="0.440191" height="0.330143" fill="#0D87EF"/>
<rect x="14.414" y="44.0234" width="0.440191" height="0.440191" fill="#0D87EF"/>
<rect x="15.1837" y="44.4636" width="0.110048" height="0.440191" fill="#0D87EF"/>
<rect x="15.1837" y="43.6932" width="0.110048" height="0.330143" fill="#0D87EF"/>
<rect x="14.414" y="43.253" width="0.440191" height="0.440191" fill="#0D87EF"/>
<rect x="13.0919" y="42.4826" width="0.440191" height="1.21052" fill="#0D87EF"/>
<rect x="13.532" y="42.4826" width="0.880381" height="0.770334" fill="#0D87EF"/>
<rect x="14.414" y="42.4826" width="0.880381" height="0.330143" fill="#0D87EF"/>
<rect x="13.6438" y="42.0426" width="0.330143" height="0.440191" fill="#0D87EF"/>
<rect x="13.0919" y="39.9517" width="0.440191" height="2.09091" fill="#0D87EF"/>
<rect x="13.532" y="41.2722" width="0.440191" height="0.330143" fill="#0D87EF"/>
<rect x="13.532" y="39.9517" width="0.440191" height="0.770334" fill="#0D87EF"/>
<rect x="13.9727" y="40.722" width="0.440191" height="0.550238" fill="#0D87EF"/>
<rect x="14.414" y="40.3918" width="0.330143" height="1.65072" fill="#0D87EF"/>
<rect x="14.7429" y="40.832" width="0.550238" height="0.330143" fill="#0D87EF"/>
<rect x="14.8547" y="39.1813" width="0.440191" height="1.21052" fill="#0D87EF"/>
<rect x="13.9727" y="39.5114" width="0.880381" height="0.440191" fill="#0D87EF"/>
<rect x="13.0919" y="38.7411" width="0.440191" height="0.770334" fill="#0D87EF"/>
<rect x="13.532" y="39.1813" width="0.880381" height="0.330143" fill="#0D87EF"/>
<rect x="13.9727" y="38.7411" width="1.32057" height="0.440191" fill="#0D87EF"/>
<rect x="15.1837" y="38.301" width="0.110048" height="0.440191" fill="#0D87EF"/>
<rect x="13.6438" y="37.9708" width="0.330143" height="0.330143" fill="#0D87EF"/>
<rect x="13.0919" y="37.0903" width="0.880381" height="0.330143" fill="#0D87EF"/>
<rect x="14.414" y="37.0903" width="0.440191" height="1.21052" fill="#0D87EF"/>
<rect x="13.9727" y="37.4206" width="0.440191" height="0.550238" fill="#0D87EF"/>
<rect x="14.8547" y="37.4206" width="0.440191" height="0.550238" fill="#0D87EF"/>
<rect x="15.1837" y="37.0903" width="0.110048" height="0.330143" fill="#0D87EF"/>
<rect x="13.0919" y="35.88" width="0.880381" height="1.21052" fill="#0D87EF"/>
<rect x="13.0919" y="34.6693" width="0.440191" height="1.21052" fill="#0D87EF"/>
<rect x="13.9727" y="36.6503" width="0.440191" height="0.440191" fill="#0D87EF"/>
<rect x="14.414" y="36.32" width="0.330143" height="0.330143" fill="#0D87EF"/>
<rect x="13.9727" y="35.88" width="0.440191" height="0.440191" fill="#0D87EF"/>
<rect x="14.414" y="35.4397" width="0.440191" height="0.440191" fill="#0D87EF"/>
<rect x="15.1837" y="36.6503" width="0.110048" height="0.440191" fill="#0D87EF"/>
<rect x="15.1837" y="35.88" width="0.110048" height="0.440191" fill="#0D87EF"/>
<rect x="13.532" y="34.2292" width="0.440191" height="1.21052" fill="#0D87EF"/>
<rect x="13.9727" y="34.6693" width="0.440191" height="0.770334" fill="#0D87EF"/>
<rect x="14.414" y="34.6693" width="0.880381" height="0.330143" fill="#0D87EF"/>
<rect x="13.0919" y="32.1382" width="0.440191" height="2.09091" fill="#0D87EF"/>
<rect x="13.532" y="32.1382" width="0.440191" height="0.880381" fill="#0D87EF"/>
<rect x="13.532" y="33.3488" width="0.440191" height="0.440191" fill="#0D87EF"/>
<rect x="13.9727" y="33.0185" width="1.32057" height="0.330143" fill="#0D87EF"/>
<rect x="14.414" y="33.5689" width="0.440191" height="1.10048" fill="#0D87EF"/>
<rect x="14.414" y="32.5785" width="0.440191" height="0.440191" fill="#0D87EF"/>
<rect x="14.8547" y="31.3679" width="0.440191" height="1.21052" fill="#0D87EF"/>
<rect x="13.0919" y="30.9276" width="0.440191" height="0.770334" fill="#0D87EF"/>
<rect x="13.532" y="31.3679" width="0.440191" height="0.330143" fill="#0D87EF"/>
<rect x="13.9727" y="30.9276" width="0.440191" height="1.21052" fill="#0D87EF"/>
<rect x="14.414" y="31.8082" width="0.440191" height="0.330143" fill="#0D87EF"/>
<rect x="14.414" y="30.9276" width="0.880381" height="0.440191" fill="#0D87EF"/>
<rect x="15.1837" y="30.2674" width="0.110048" height="0.440191" fill="#0D87EF"/>
<rect x="13.532" y="30.0473" width="0.440191" height="0.440191" fill="#0D87EF"/>
<rect x="14.414" y="30.0473" width="0.440191" height="0.440191" fill="#0D87EF"/>
<rect x="13.532" y="29.277" width="0.440191" height="0.440191" fill="#0D87EF"/>
<rect x="14.414" y="29.277" width="0.660286" height="0.440191" fill="#0D87EF"/>
<rect x="13.9727" y="29.7172" width="1.32057" height="0.330143" fill="#0D87EF"/>
<rect x="12.9818" y="30.0473" width="0.550238" height="0.440191" fill="#0D87EF"/>
<rect x="13.9727" y="30.0473" width="0.440191" height="0.440191" fill="#0D87EF"/>
<rect x="14.8547" y="30.0473" width="0.440191" height="0.440191" fill="#0D87EF"/>
<rect x="13.0919" y="29.277" width="0.440191" height="0.440191" fill="#0D87EF"/>
<rect x="13.0919" y="28.8368" width="1.32057" height="0.440191" fill="#0D87EF"/>
<rect x="15.1837" y="28.8368" width="0.110048" height="0.440191" fill="#0D87EF"/>
<rect x="14.414" y="28.5067" width="0.330143" height="0.330143" fill="#0D87EF"/>
<rect x="13.0919" y="28.0664" width="0.880381" height="0.880381" fill="#0D87EF"/>
<rect x="13.9727" y="28.0664" width="0.440191" height="0.440191" fill="#0D87EF"/>
<rect x="15.1837" y="28.0664" width="0.110048" height="0.440191" fill="#0D87EF"/>
<rect x="14.414" y="27.6262" width="0.440191" height="0.440191" fill="#0D87EF"/>
<rect x="13.0919" y="26.8559" width="0.440191" height="1.21052" fill="#0D87EF"/>
<rect x="13.532" y="26.8559" width="0.880381" height="0.770334" fill="#0D87EF"/>
<rect x="14.414" y="26.8559" width="0.880381" height="0.330143" fill="#0D87EF"/>
<rect x="13.6438" y="26.4158" width="0.770334" height="0.440191" fill="#0D87EF"/>
<rect x="13.0919" y="24.3248" width="0.440191" height="2.09091" fill="#0D87EF"/>
<rect x="13.532" y="25.5353" width="0.440191" height="0.440191" fill="#0D87EF"/>
<rect x="14.414" y="25.5353" width="0.440191" height="0.880381" fill="#0D87EF"/>
<rect x="13.9727" y="25.2053" width="0.440191" height="0.330143" fill="#0D87EF"/>
<rect x="13.532" y="24.3248" width="0.440191" height="0.880381" fill="#0D87EF"/>
<rect x="14.414" y="24.765" width="0.440191" height="0.440191" fill="#0D87EF"/>
<rect x="13.0919" y="23.1143" width="0.550238" height="0.770334" fill="#0D87EF"/>
<rect x="13.6438" y="23.5545" width="0.330143" height="0.330143" fill="#0D87EF"/>
<rect x="13.9727" y="23.1143" width="0.440191" height="1.21052" fill="#0D87EF"/>
<rect x="14.414" y="23.1143" width="0.880381" height="0.440191" fill="#0D87EF"/>
<rect x="14.414" y="23.9947" width="1.65071" height="0.330143" fill="#0D87EF"/>
<rect x="14.414" y="24.3248" width="1.21052" height="0.440191" fill="#0D87EF"/>
<rect x="14.8547" y="23.5545" width="0.770334" height="0.440191" fill="#0D87EF"/>
<path d="M13.532 22.344H13.9722V22.7842H13.532V22.344Z" fill="#0D87EF"/>
<path d="M13.3131 21.5736L13.7533 21.8488V22.0138H13.3131V21.5736Z" fill="#0D87EF"/>
<path d="M13.9727 21.9893L14.3029 22.179V22.344H13.9727V21.9893Z" fill="#0D87EF"/>
<path d="M14.414 22.2615L14.9642 22.5978V23.0043H14.414V22.2615Z" fill="#0D87EF"/>
<path d="M15.2948 22.8012L15.625 23.0042V23.1143H15.2948V22.8012Z" fill="#0D87EF"/>
<path d="M15.6249 23.1056H15.79L16.5053 23.5458H15.6249V23.1056Z" fill="#0D87EF"/>
<path d="M16.4773 23.5305L16.6144 23.6096L16.8345 23.7497V23.8847H16.4773V23.5305Z" fill="#0D87EF"/>
<path d="M16.4761 23.8846H16.9268L17.1301 24.3248H16.4761V23.8846Z" fill="#0D87EF"/>
<rect x="16.0657" y="24.3248" width="0.440191" height="0.440191" fill="#0D87EF"/>
<path d="M16.8341 24.3248H17.1307L17.3294 24.765H16.8341V24.3248Z" fill="#0D87EF"/>
<rect x="16.5046" y="24.765" width="0.330143" height="2.09091" fill="#0D87EF"/>
<rect x="16.0657" y="25.5353" width="0.440191" height="0.880381" fill="#0D87EF"/>
<rect x="15.4037" y="25.0952" width="0.660286" height="0.880381" fill="#0D87EF"/>
<path d="M15.2948 26.1956H16.0652V26.6358H15.4049L15.2948 26.4157V26.1956Z" fill="#0D87EF"/>
<path d="M15.7338 26.6358H16.5041V27.8463H15.9539L15.7338 27.3511V26.6358Z" fill="#0D87EF"/>
<rect x="16.5046" y="27.0761" width="0.440191" height="0.330143" fill="#0D87EF"/>
<rect x="16.9447" y="25.3153" width="0.440191" height="1.32057" fill="#0D87EF"/>
<path d="M17.3843 25.7555H17.7854L17.8245 25.8406V26.1956H17.3843V25.7555Z" fill="#0D87EF"/>
<path d="M17.825 26.1956H17.9901L18.1552 26.5598V27.8463H17.825V26.1956Z" fill="#0D87EF"/>
<rect x="17.3843" y="26.6358" width="0.440191" height="0.770334" fill="#0D87EF"/>
<rect x="16.9447" y="27.4061" width="0.440191" height="0.440191" fill="#0D87EF"/>
<rect x="17.3843" y="27.8464" width="0.440191" height="1.98086" fill="#0D87EF"/>
<rect x="16.9447" y="28.7267" width="0.440191" height="0.770334" fill="#0D87EF"/>
<path d="M16.7241 29.4971H16.9992V29.9373H16.9162L16.7241 29.4971Z" fill="#0D87EF"/>
<path d="M18.1545 27.4063H18.5397L18.747 27.8465H18.1545V27.4063Z" fill="#0D87EF"/>
<path d="M18.5795 27.8464H18.7446L19.0901 28.6167H18.5795V27.8464Z" fill="#0D87EF"/>
<rect x="17.825" y="28.2866" width="0.770334" height="0.770334" fill="#0D87EF"/>
<rect x="17.825" y="29.0569" width="0.330143" height="0.440191" fill="#0D87EF"/>
<rect x="18.5952" y="29.0569" width="0.440191" height="0.880381" fill="#0D87EF"/>
<path d="M19.0348 29.0569H19.3099L19.5038 29.4971H19.0348V29.0569Z" fill="#0D87EF"/>
<rect x="18.1545" y="29.9372" width="0.440191" height="0.440191" fill="#0D87EF"/>
<rect x="17.7156" y="30.2674" width="0.440191" height="0.880381" fill="#0D87EF"/>
<path d="M17.074 30.2674H17.3848V30.8176H17.3298L17.074 30.2674Z" fill="#0D87EF"/>
<path d="M17.4728 31.1357H17.747V31.533H17.6605L17.4728 31.1357Z" fill="#0D87EF"/>
<path d="M19.3655 29.9372H19.7096L19.8057 30.1573V31.1477H19.3655V29.9372Z" fill="#0D87EF"/>
<rect x="18.5952" y="30.3775" width="0.770334" height="0.770334" fill="#0D87EF"/>
<path d="M18.1545 31.1478H18.5947V32.7986H18.2344L18.1545 32.62V31.1478Z" fill="#0D87EF"/>
<path d="M17.6608 31.533H18.1698V32.1933H17.936L17.6608 31.533Z" fill="#0D87EF"/>
<rect x="18.5952" y="31.588" width="1.21052" height="0.440191" fill="#0D87EF"/>
<path d="M20.2457 31.1238L20.4108 31.478L20.5759 31.8631V32.7985H20.2457V31.1238Z" fill="#0D87EF"/>
<rect x="19.8062" y="32.0282" width="0.440191" height="0.770334" fill="#0D87EF"/>
<rect x="19.3655" y="32.0282" width="0.440191" height="0.330143" fill="#0D87EF"/>
<rect x="18.9259" y="32.3583" width="0.440191" height="0.880381" fill="#0D87EF"/>
<rect x="18.5952" y="32.7985" width="0.330143" height="0.440191" fill="#0D87EF"/>
<path d="M20.2457 32.7985H21.0161L21.2254 33.2387H20.2457V32.7985Z" fill="#0D87EF"/>
<rect x="19.0348" y="33.2387" width="0.330143" height="0.330143" fill="#0D87EF"/>
<rect x="20.2457" y="33.2387" width="0.440191" height="0.440191" fill="#0D87EF"/>
<rect x="19.8062" y="33.6788" width="0.440191" height="0.440191" fill="#0D87EF"/>
<rect x="19.3655" y="34.1191" width="0.440191" height="0.770334" fill="#0D87EF"/>
<path d="M18.6913 33.7889H19.3667V34.1191H18.8439L18.6913 33.7889Z" fill="#0D87EF"/>
<rect x="20.2457" y="34.1191" width="1.21052" height="0.770334" fill="#0D87EF"/>
<path d="M21.0165 33.6788H21.4249L21.7869 34.4492H21.0165V33.6788Z" fill="#0D87EF"/>
<path d="M19.2007 34.8895H19.3658V35.2747L19.2007 34.8895Z" fill="#0D87EF"/>
<rect x="19.8062" y="34.8895" width="0.440191" height="0.440191" fill="#0D87EF"/>
<path d="M19.3981 35.3296H20.2462V36.5401H19.9539L19.3981 35.3296Z" fill="#0D87EF"/>
<rect x="20.2457" y="35.3296" width="1.21052" height="0.440191" fill="#0D87EF"/>
<path d="M21.8962 34.6693L22.2263 35.4277V36.5401H21.8962V34.6693Z" fill="#0D87EF"/>
<rect x="21.4567" y="35.7698" width="0.440191" height="0.770334" fill="#0D87EF"/>
<rect x="21.0165" y="35.7698" width="0.440191" height="0.440191" fill="#0D87EF"/>
<rect x="20.5764" y="36.1" width="0.440191" height="0.880381" fill="#0D87EF"/>
<rect x="20.2457" y="36.5401" width="0.330143" height="0.440191" fill="#0D87EF"/>
<path d="M20.6858 36.9803H21.4562V38.1358H20.6858V36.9803Z" fill="#0D87EF"/>
<rect x="21.4567" y="37.5306" width="0.440191" height="0.330143" fill="#0D87EF"/>
<rect x="21.4567" y="36.6503" width="0.770334" height="0.330143" fill="#0D87EF"/>
<path d="M22.2275 36.32H22.638L22.7902 36.6502H22.2275V36.32Z" fill="#0D87EF"/>
<path d="M22.7782 36.6503L23.1084 37.3521V37.8608H22.7782V36.6503Z" fill="#0D87EF"/>
<rect x="22.2275" y="36.9803" width="0.550238" height="0.880381" fill="#0D87EF"/>
<rect x="21.8962" y="37.8607" width="0.330143" height="0.330143" fill="#0D87EF"/>
<path d="M22.7782 37.8607H23.3453L23.4935 38.1909H22.7782V37.8607Z" fill="#0D87EF"/>
<rect x="22.2275" y="38.1909" width="0.550238" height="0.660286" fill="#0D87EF"/>
<path d="M21.0165 38.521H21.3467V39.5664L21.0165 38.8511V38.521Z" fill="#0D87EF"/>
<rect x="21.346" y="38.521" width="0.880381" height="0.330143" fill="#0D87EF"/>
<rect x="23.1071" y="38.521" width="0.440191" height="0.880381" fill="#0D87EF"/>
<rect x="22.2275" y="38.9611" width="0.440191" height="0.440191" fill="#0D87EF"/>
<rect x="21.7873" y="39.4014" width="1.32057" height="0.330143" fill="#0D87EF"/>
<path d="M21.42 39.7315H22.226V40.6118H21.8214L21.42 39.7315Z" fill="#0D87EF"/>
<rect x="22.2275" y="39.7315" width="0.880381" height="0.440191" fill="#0D87EF"/>
<path d="M23.9065 39.0712L24.4017 40.1717H24.3467H23.9065V39.0712Z" fill="#0D87EF"/>
<rect x="23.1071" y="39.8416" width="0.880381" height="0.330143" fill="#0D87EF"/>
<rect x="22.6664" y="40.1717" width="0.770334" height="0.880381" fill="#0D87EF"/>
<rect x="22.6664" y="41.0521" width="0.330143" height="1.21052" fill="#0D87EF"/>
<path d="M22.0254 41.0521H22.2262V41.4923L22.0254 41.0521Z" fill="#0D87EF"/>
<path d="M22.2275 41.4924H22.6677V42.2627H22.5838L22.2275 41.4924Z" fill="#0D87EF"/>
<rect x="23.4384" y="40.6119" width="0.440191" height="0.440191" fill="#0D87EF"/>
<path d="M24.296 40.1717H24.406L24.8124 41.0521H24.296V40.1717Z" fill="#0D87EF"/>
<path d="M23.4384 41.0521H24.814L25.0147 41.4923H23.4384V41.0521Z" fill="#0D87EF"/>
<rect x="23.8774" y="41.8224" width="1.21052" height="0.440191" fill="#0D87EF"/>
<rect x="23.4384" y="42.2627" width="0.440191" height="0.440191" fill="#0D87EF"/>
<path d="M25.1989 42.2627H25.364L25.5203 42.5928H25.1989V42.2627Z" fill="#0D87EF"/>
<rect x="23.9891" y="42.4826" width="0.330143" height="0.880381" fill="#0D87EF"/>
<rect x="24.7576" y="42.4826" width="0.440191" height="0.880381" fill="#0D87EF"/>
<rect x="23.5473" y="42.9229" width="0.440191" height="1.21052" fill="#0D87EF"/>
<path d="M23.0891 43.3632H23.5482V43.8034H23.2898L23.0891 43.3632Z" fill="#0D87EF"/>
<rect x="23.9891" y="43.3632" width="0.770334" height="0.330143" fill="#0D87EF"/>
<path d="M25.6489 42.8679L25.869 43.3631H25.6489V42.8679Z" fill="#0D87EF"/>
<rect x="25.1989" y="43.3632" width="0.440191" height="1.65072" fill="#0D87EF"/>
<rect x="24.7576" y="43.6932" width="0.440191" height="0.770334" fill="#0D87EF"/>
<path d="M25.639 43.8032H26.0721L26.2269 44.1334H25.639V43.8032Z" fill="#0D87EF"/>
<rect x="23.9891" y="44.1335" width="0.440191" height="0.440191" fill="#0D87EF"/>
<rect x="24.4281" y="44.4636" width="0.330143" height="0.770334" fill="#0D87EF"/>
<path d="M23.7924 44.9006H23.9859V45.3211L23.7924 44.9006Z" fill="#0D87EF"/>
<rect x="25.9686" y="44.5736" width="0.440191" height="0.440191" fill="#0D87EF"/>
<path d="M26.4099 45.0138H26.63L26.8341 45.454H26.4099V45.0138Z" fill="#0D87EF"/>
<rect x="25.639" y="45.0138" width="0.330143" height="0.330143" fill="#0D87EF"/>
<rect x="24.7576" y="45.0138" width="0.440191" height="1.65072" fill="#0D87EF"/>
<path d="M23.9973 45.3439H24.3051V45.8942H24.2501L23.9973 45.3439Z" fill="#0D87EF"/>
<rect x="24.2092" y="45.454" width="0.550238" height="0.330143" fill="#0D87EF"/>
<rect x="25.9686" y="45.454" width="0.440191" height="0.770334" fill="#0D87EF"/>
<rect x="25.1989" y="46.2243" width="0.330143" height="0.440191" fill="#0D87EF"/>
<path d="M24.6051 46.6645H25.1984V47.1047H24.8027L24.6051 46.6645Z" fill="#0D87EF"/>
<rect x="25.5279" y="46.6645" width="0.440191" height="1.65072" fill="#0D87EF"/>
<rect x="25.1989" y="47.1046" width="0.330143" height="0.770334" fill="#0D87EF"/>
<rect x="26.7388" y="46.2243" width="0.440191" height="0.440191" fill="#0D87EF"/>
<rect x="26.4099" y="46.6645" width="0.330143" height="0.770334" fill="#0D87EF"/>
<path d="M27.1783 46.6645H27.3881L27.591 47.1047H27.1783V46.6645Z" fill="#0D87EF"/>
<rect x="26.7388" y="47.4348" width="0.440191" height="0.880381" fill="#0D87EF"/>
<rect x="25.9686" y="47.875" width="0.440191" height="0.440191" fill="#0D87EF"/>
<rect x="26.4099" y="48.3153" width="0.330143" height="0.770334" fill="#0D87EF"/>
<path d="M25.5634 48.7554H26.4091V49.5257H25.9139L25.5634 48.7554Z" fill="#0D87EF"/>
<path d="M27.6394 47.2147L28.4986 49.0855H27.6394V47.2147Z" fill="#0D87EF"/>
<rect x="26.4099" y="49.5258" width="1.21052" height="0.330143" fill="#0D87EF"/>
<rect x="26.4099" y="49.856" width="0.330143" height="0.550238" fill="#0D87EF"/>
<rect x="27.6208" y="49.856" width="0.440191" height="0.660286" fill="#0D87EF"/>
<rect x="28.3893" y="49.9659" width="0.440191" height="0.440191" fill="#0D87EF"/>
<path d="M26.5187 50.8464H27.6192V51.5067H26.8269L26.5187 50.8464Z" fill="#0D87EF"/>
<rect x="27.1783" y="50.4062" width="1.32057" height="0.440191" fill="#0D87EF"/>
<path d="M27.6208 50.8464H29.3094L29.5115 51.2866H27.6208V50.8464Z" fill="#0D87EF"/>
<rect x="28.0598" y="51.2865" width="0.770334" height="0.770334" fill="#0D87EF"/>
<path d="M27.0811 52.0569H27.6314V52.8272H27.4336L27.0811 52.0569Z" fill="#0D87EF"/>
<rect x="28.0598" y="52.0569" width="0.330143" height="1.21052" fill="#0D87EF"/>
<path d="M27.6208 52.4971H28.061V53.3774L27.6208 53.1023V52.4971Z" fill="#0D87EF"/>
<rect x="28.8294" y="51.6167" width="0.440191" height="0.880381" fill="#0D87EF"/>
<path d="M29.2136 52.0569H29.8635L29.929 52.2002V52.497H29.2136V52.0569Z" fill="#0D87EF"/>
<path d="M29.698 51.7267H29.7099L29.8631 52.0569H29.698V51.7267Z" fill="#0D87EF"/>
<path d="M32.5159 55.9854L27.5633 53.0764L27.2336 52.387L32.5159 55.4131L32.5159 55.9854Z" fill="#0D87EF"/>
<rect x="28.94" y="52.4971" width="0.330143" height="0.330143" fill="#0D87EF"/>
<rect x="29.269" y="52.8271" width="0.330143" height="1.10048" fill="#0D87EF"/>
<rect x="29.6002" y="53.7075" width="0.770334" height="0.550238" fill="#0D87EF"/>
<rect x="29.9309" y="51.6167" width="0.440191" height="2.09091" fill="#0D87EF"/>
<path d="M31.1779 54.4779H32.5177V54.9181H31.1779V54.4779Z" fill="#0D87EF"/>
<rect x="30.2977" y="52.4971" width="0.550238" height="1.10048" fill="#0D87EF"/>
<rect x="30.8472" y="53.2674" width="0.440191" height="0.880381" fill="#0D87EF"/>
<path d="M31.2868 53.7075H32.5161V54.1477H31.2868V53.7075Z" fill="#0D87EF"/>
<rect x="30.8472" y="52.4971" width="1.21052" height="0.330143" fill="#0D87EF"/>
<rect x="31.6184" y="52.8272" width="0.440191" height="0.880381" fill="#0D87EF"/>
<path d="M31.6355 52.8271H32.5159V53.2673H31.6355V53.0472V52.8271Z" fill="#0D87EF"/>
<path d="M31.9662 52.0569H32.5164V52.497H31.9662V52.0569Z" fill="#0D87EF"/>
<path d="M31.6332 51.1764H32.5163V51.6166H31.6332V51.1764Z" fill="#0D87EF"/>
<rect x="31.2868" y="51.6167" width="0.770334" height="0.880381" fill="#0D87EF"/>
<rect x="30.2977" y="51.6167" width="0.440191" height="0.440191" fill="#0D87EF"/>
<rect x="30.4075" y="50.8464" width="1.32057" height="0.330143" fill="#0D87EF"/>
<path d="M29.9309 50.4062H30.4811V50.8463H29.9309V50.4062Z" fill="#0D87EF"/>
<path d="M31.1779 50.4062H32.5168V50.8463H31.1779V50.4062Z" fill="#0D87EF"/>
<rect x="30.4075" y="49.9659" width="1.21052" height="0.440191" fill="#0D87EF"/>
<path d="M29.9309 49.1956H30.4084V49.966H29.9309V49.1956Z" fill="#0D87EF"/>
<rect x="30.4075" y="49.1956" width="0.330143" height="0.330143" fill="#0D87EF"/>
<path d="M29.9309 48.3153H30.4071V48.7555H29.9309V48.3153Z" fill="#0D87EF"/>
<rect x="30.4075" y="47.875" width="0.770334" height="0.440191" fill="#0D87EF"/>
<path d="M29.9274 47.5449H30.4063V47.8751H29.9274V47.5449Z" fill="#0D87EF"/>
<rect x="31.1779" y="48.3153" width="0.880381" height="1.65072" fill="#0D87EF"/>
<path d="M32.0582 49.5258H32.5166V49.966H32.0582V49.5258Z" fill="#0D87EF"/>
<path d="M32.0582 48.7554H32.5171V49.1956H32.0582V48.7554Z" fill="#0D87EF"/>
<path d="M31.6184 47.875H32.517V48.3152H31.6184V47.875Z" fill="#0D87EF"/>
<rect x="31.1779" y="47.5449" width="0.880381" height="0.330143" fill="#0D87EF"/>
<path d="M30.8472 47.1046H32.5157V47.5448H30.8472V47.1046Z" fill="#0D87EF"/>
<path d="M29.9344 46.6645H30.4079V47.1047H29.9344V46.6645Z" fill="#0D87EF"/>
<rect x="30.8472" y="46.6645" width="0.440191" height="0.440191" fill="#0D87EF"/>
<rect x="31.6184" y="46.6645" width="0.440191" height="0.440191" fill="#0D87EF"/>
<path d="M29.9321 47.1046H30.8471V47.4348H29.9321V47.1046Z" fill="#0D87EF"/>
<path d="M29.9309 45.7842H30.4084V46.4445H29.9309V45.7842Z" fill="#0D87EF"/>
<rect x="31.1779" y="46.2243" width="0.440191" height="0.440191" fill="#0D87EF"/>
<path d="M32.0582 45.0138H32.5161V46.6645H32.0582V45.0138Z" fill="#0D87EF"/>
<rect x="31.6184" y="45.454" width="0.440191" height="0.770334" fill="#0D87EF"/>
<rect x="30.739" y="45.7842" width="0.440191" height="0.440191" fill="#0D87EF"/>
<path d="M29.9274 45.0138H31.6168V45.454H29.9274V45.0138Z" fill="#0D87EF"/>
<rect x="30.4075" y="45.454" width="0.440191" height="0.330143" fill="#0D87EF"/>
<rect x="30.4075" y="44.5737" width="0.880381" height="0.440191" fill="#0D87EF"/>
<rect x="30.8472" y="44.1335" width="0.440191" height="0.440191" fill="#0D87EF"/>
<rect x="31.6184" y="44.1335" width="0.440191" height="0.880381" fill="#0D87EF"/>
<path d="M32.0582 43.6932H32.5176V44.1334H32.0582V43.6932Z" fill="#0D87EF"/>
<path d="M29.9309 43.253H31.1788V44.1334H29.9309V43.253Z" fill="#0D87EF"/>
<rect x="30.4075" y="42.4826" width="0.440191" height="0.770334" fill="#0D87EF"/>
<path d="M29.9309 42.0426H30.4084V42.4828H29.9309V42.0426Z" fill="#0D87EF"/>
<rect x="30.8472" y="42.9229" width="1.21052" height="0.330143" fill="#0D87EF"/>
<rect x="31.6184" y="42.4826" width="0.440191" height="0.440191" fill="#0D87EF"/>
<rect x="31.3986" y="43.4732" width="0.440191" height="0.440191" fill="#0D87EF"/>
<path d="M32.0582 41.6022H32.5166V42.4826H32.0582V41.6022Z" fill="#0D87EF"/>
<rect x="30.8472" y="42.0426" width="0.770334" height="0.440191" fill="#0D87EF"/>
<rect x="30.4075" y="41.2722" width="0.770334" height="0.770334" fill="#0D87EF"/>
<rect x="31.6184" y="40.832" width="0.440191" height="0.770334" fill="#0D87EF"/>
<path d="M32.3889 40.832H32.5161V41.2722L32.3889 41.2705V40.832Z" fill="#0D87EF"/>
<rect x="32.0582" y="40.3918" width="0.330143" height="0.440191" fill="#0D87EF"/>
<rect x="30.8472" y="40.832" width="0.330143" height="0.440191" fill="#0D87EF"/>
<path d="M29.9309 40.832H30.4084V41.2722H29.9309V40.832Z" fill="#0D87EF"/>
<path d="M29.9309 40.3918H30.8486V40.832H29.9309V40.3918Z" fill="#0D87EF"/>
<path d="M29.9309 38.1909H30.4084V40.3918H29.9309V38.1909Z" fill="#0D87EF"/>
<rect x="31.6184" y="38.741" width="0.440191" height="1.65072" fill="#0D87EF"/>
<path d="M32.0582 39.0712H32.5162V39.4013H32.0582V39.0712Z" fill="#0D87EF"/>
<rect x="30.8472" y="39.8416" width="0.330143" height="0.550238" fill="#0D87EF"/>
<rect x="31.1779" y="40.3918" width="0.440191" height="0.660286" fill="#0D87EF"/>
<rect x="30.4075" y="39.4014" width="0.440191" height="0.440191" fill="#0D87EF"/>
<rect x="31.1779" y="39.0712" width="0.440191" height="0.770334" fill="#0D87EF"/>
<rect x="30.4075" y="38.6311" width="0.770334" height="0.440191" fill="#0D87EF"/>
<rect x="30.4075" y="37.7506" width="0.440191" height="0.880381" fill="#0D87EF"/>
<rect x="31.1779" y="37.8607" width="0.440191" height="0.880381" fill="#0D87EF"/>
<path d="M32.0582 37.8607H32.5177V38.7411H32.0582V37.8607Z" fill="#0D87EF"/>
<rect x="31.6184" y="37.4206" width="0.440191" height="0.440191" fill="#0D87EF"/>
<path d="M29.9344 36.5401H30.4079V37.4205H29.9344V36.5401Z" fill="#0D87EF"/>
<rect x="30.739" y="36.5401" width="0.880381" height="0.880381" fill="#0D87EF"/>
<path d="M32.0582 36.5401H32.5162V37.4205H32.0582V36.5401Z" fill="#0D87EF"/>
<rect x="30.739" y="36.1" width="0.440191" height="0.440191" fill="#0D87EF"/>
<rect x="30.2977" y="35.6597" width="0.440191" height="0.440191" fill="#0D87EF"/>
<path d="M29.9309 35.2196L30.2973 35.2196V35.6598H29.9309V35.2196Z" fill="#0D87EF"/>
<rect x="31.6184" y="35.3296" width="0.440191" height="1.21052" fill="#0D87EF"/>
<path d="M32.4055 36.1H32.5155V36.5402H32.4055V36.1Z" fill="#0D87EF"/>
<rect x="31.1779" y="35.3296" width="0.440191" height="0.770334" fill="#0D87EF"/>
<path d="M32.0582 35.3296H32.5177V35.7698H32.0582V35.3296Z" fill="#0D87EF"/>
<rect x="31.6184" y="34.8895" width="0.440191" height="0.440191" fill="#0D87EF"/>
<path d="M29.9309 34.2292L30.2973 34.2292V34.9995H29.9309V34.2292Z" fill="#0D87EF"/>
<rect x="30.2977" y="34.4493" width="0.440191" height="0.550238" fill="#0D87EF"/>
<rect x="30.739" y="34.9994" width="0.440191" height="0.330143" fill="#0D87EF"/>
<path d="M32.0582 34.0089H32.5154V34.8893H32.0582V34.0089Z" fill="#0D87EF"/>
<rect x="31.1779" y="34.0089" width="0.440191" height="0.990429" fill="#0D87EF"/>
<rect x="31.6184" y="33.6788" width="0.440191" height="0.330143" fill="#0D87EF"/>
<path d="M32.0582 33.1286H32.5157V33.4038V33.6789H32.0582V33.1286Z" fill="#0D87EF"/>
<rect x="30.2977" y="33.4588" width="0.440191" height="0.770334" fill="#0D87EF"/>
<rect x="30.739" y="33.1286" width="0.440191" height="0.330143" fill="#0D87EF"/>
<rect x="31.1779" y="32.2482" width="0.440191" height="0.880381" fill="#0D87EF"/>
<path d="M31.6184 32.2482L32.3887 32.6884H31.6184V32.2482Z" fill="#0D87EF"/>
<path d="M29.9268 31.2557L30.2974 31.478V33.0186H29.9268V31.2557Z" fill="#0D87EF"/>
<path d="M30.2977 31.4781L30.7379 31.7272V32.6886H30.2977V31.4781Z" fill="#0D87EF"/>
<path d="M30.739 31.7288L31.1792 31.9732V32.2483H30.739V31.7288Z" fill="#0D87EF"/>
</svg>
